<svg xmlns="http://www.w3.org/2000/svg" width="34.119" height="40" viewBox="0 0 34.119 40">
  <g id="andriod" transform="translate(-37.134 0)">
    <g id="组_352" data-name="组 352" transform="translate(37.134 0)">
      <g id="组_351" data-name="组 351">
        <path id="路径_389" data-name="路径 389" d="M39.621,164.715h-.1a2.391,2.391,0,0,0-2.385,2.385v10.382a2.389,2.389,0,0,0,2.385,2.386h.1a2.391,2.391,0,0,0,2.385-2.386V167.1A2.4,2.4,0,0,0,39.621,164.715Z" transform="translate(-37.134 -151.672)" fill="#0d73ad"/>
        <path id="路径_390" data-name="路径 390" d="M113.085,185.918a2.194,2.194,0,0,0,2.191,2.188h2.342v5.608A2.392,2.392,0,0,0,120,196.1h.1a2.392,2.392,0,0,0,2.388-2.388v-5.608h3.273v5.608a2.4,2.4,0,0,0,2.388,2.388h.1a2.391,2.391,0,0,0,2.386-2.388v-5.608h2.344a2.194,2.194,0,0,0,2.19-2.188V169.525H113.085Z" transform="translate(-107.071 -156.101)" fill="#0d73ad"/>
        <path id="路径_391" data-name="路径 391" d="M128.777,3.483l1.86-2.871a.4.4,0,0,0-.116-.547.392.392,0,0,0-.547.116l-1.928,2.97a12.751,12.751,0,0,0-9.54,0L116.581.181a.4.4,0,0,0-.666.43l1.862,2.871a9.417,9.417,0,0,0-5.62,8.3c0,.219.014.434.032.647h22.176c.019-.213.031-.429.031-.647A9.42,9.42,0,0,0,128.777,3.483ZM118.135,8.624A1.065,1.065,0,1,1,119.2,7.559,1.065,1.065,0,0,1,118.135,8.624Zm10.281,0a1.065,1.065,0,1,1,1.066-1.066A1.065,1.065,0,0,1,128.416,8.624Z" transform="translate(-106.216 0)" fill="#0d73ad"/>
        <path id="路径_392" data-name="路径 392" d="M408.956,164.715h-.1a2.394,2.394,0,0,0-2.388,2.385v10.382a2.393,2.393,0,0,0,2.388,2.386h.1a2.39,2.39,0,0,0,2.385-2.386V167.1A2.393,2.393,0,0,0,408.956,164.715Z" transform="translate(-377.223 -151.672)" fill="#0d73ad"/>
      </g>
    </g>
  </g>
</svg>
