<svg xmlns="http://www.w3.org/2000/svg" width="32.809" height="40" viewBox="0 0 32.809 40">
  <g id="apple" transform="translate(-46.022)">
    <path id="路径_393" data-name="路径 393" d="M56.9,148.743c-5.953-.034-10.878-12.187-10.878-18.376,0-10.11,7.584-12.323,10.507-12.323a12.09,12.09,0,0,1,3.964.975,8.861,8.861,0,0,0,2.264.649,7.045,7.045,0,0,0,1.624-.526,13.015,13.015,0,0,1,4.895-1.183h.011a10.032,10.032,0,0,1,8.4,4.24l.612.92-.881.665c-1.259.95-3.556,2.682-3.556,6.115a6.9,6.9,0,0,0,3.851,6.38c.552.332,1.123.674,1.123,1.423,0,.489-3.9,10.982-9.564,10.982a7.691,7.691,0,0,1-3.23-.784,6.549,6.549,0,0,0-2.875-.692,7.394,7.394,0,0,0-2.276.616,11.149,11.149,0,0,1-3.948.921Z" transform="translate(0 -108.743)" fill="#0d73ad"/>
    <path id="路径_394" data-name="路径 394" d="M262.669,0c.148,5.318-3.656,9.008-7.455,8.777C254.588,4.532,259.013,0,262.669,0Z" transform="translate(-192.794)" fill="#0d73ad"/>
  </g>
</svg>
