<?xml version="1.0" encoding="utf-8"?>
<!-- Generator: Adobe Illustrator 22.0.1, SVG Export Plug-In . SVG Version: 6.00 Build 0)  -->
<svg version="1.1" id="Capa_1" xmlns="http://www.w3.org/2000/svg" xmlns:xlink="http://www.w3.org/1999/xlink" x="0px" y="0px"
	 viewBox="0 0 512 512" style="enable-background:new 0 0 512 512;" xml:space="preserve">
<style type="text/css">
	.st0{fill:#E6E6E6;}
	.st1{fill:#D3D3D3;}
	.st2{fill:#82D2FF;}
	.st3{fill:#08B7FC;}
</style>
<path class="st0" d="M379.3,114.4c-4.2,0-8.2,0.3-12.2,0.8c-17.9-42.8-60.2-72.9-109.5-72.9c-57.9,0-106.1,41.5-116.5,96.4
	c-41.1,1.3-74,35.1-74,76.5c0,42.3,34.3,76.6,76.6,76.6h235.7c49,0,88.7-39.7,88.7-88.7S428.3,114.4,379.3,114.4z"/>
<path class="st1" d="M379.3,114.4c-4.2,0-8.2,0.3-12.2,0.8c-17.9-42.8-60.2-72.9-109.5-72.9c0,49,0,249.5,0,249.5h121.7
	c49,0,88.7-39.7,88.7-88.7S428.3,114.4,379.3,114.4z"/>
<g>
	<path class="st2" d="M66.6,469.6L44,458.1l30.7-60.3l22.6,11.5L66.6,469.6z M108.9,386.7l-22.6-11.5l30.7-60.3l22.6,11.5
		L108.9,386.7z"/>
	<path class="st2" d="M149.9,469.6l-22.6-11.5l30.7-60.3l22.6,11.5L149.9,469.6z M192.2,386.7l-22.6-11.5l30.7-60.3l22.6,11.5
		L192.2,386.7z"/>
</g>
<g>
	<path class="st3" d="M233.2,469.6l-22.6-11.5l30.7-60.3l22.6,11.5L233.2,469.6z M275.5,386.7l-22.6-11.5l30.7-60.3l22.6,11.5
		L275.5,386.7z"/>
	<path class="st3" d="M316.5,469.6l-22.6-11.5l30.7-60.3l22.6,11.5L316.5,469.6z M358.8,386.7l-22.6-11.5l30.7-60.3l22.6,11.5
		L358.8,386.7z"/>
</g>
</svg>
