<svg id="icon-groundwater" xmlns="http://www.w3.org/2000/svg" width="30" height="30" viewBox="0 0 30 30">
  <g id="组_590" data-name="组 590">
    <g id="组_589" data-name="组 589">
      <path id="路径_490" data-name="路径 490" d="M27.3,5.273A2.69,2.69,0,0,0,30,2.637V0H27.3a2.617,2.617,0,0,0-1.758.686A2.617,2.617,0,0,0,23.789,0H21.152V2.637a2.64,2.64,0,0,0,2.637,2.637h.879V9.13a5.63,5.63,0,0,0-2.2.865,3.864,3.864,0,0,1-4.3,0,5.635,5.635,0,0,0-2.289-.885V5.273h.879a2.64,2.64,0,0,0,2.637-2.637V0H16.758A2.617,2.617,0,0,0,15,.686,2.617,2.617,0,0,0,13.242,0H10.605V2.637a2.64,2.64,0,0,0,2.637,2.637h.879V9.13a5.63,5.63,0,0,0-2.2.865,3.864,3.864,0,0,1-4.3,0,5.636,5.636,0,0,0-2.289-.885V5.273h.879A2.64,2.64,0,0,0,8.848,2.637V0H6.211A2.617,2.617,0,0,0,4.453.686,2.617,2.617,0,0,0,2.7,0H0V2.637A2.69,2.69,0,0,0,2.7,5.273h.879V9.13A5.885,5.885,0,0,0,1.314,10a1.044,1.044,0,0,1-.511.179l-.8.069V14.18H30v-3.6l-.545-.224a9.15,9.15,0,0,0-3.029-1.247V5.273Z" fill="#fff"/>
    </g>
  </g>
  <g id="组_592" data-name="组 592" transform="translate(14.121 22.969)">
    <g id="组_591" data-name="组 591">
      <path id="路径_491" data-name="路径 491" d="M241.879,392a.879.879,0,1,0,.879.879A.88.88,0,0,0,241.879,392Z" transform="translate(-241 -392)" fill="#fff"/>
    </g>
  </g>
  <g id="组_594" data-name="组 594" transform="translate(0 15.938)">
    <g id="组_593" data-name="组 593">
      <path id="路径_492" data-name="路径 492" d="M25.911,272l-3,3v2.435a2.637,2.637,0,1,1-1.758,0v-3.163L23.425,272H15.879v5.435a2.637,2.637,0,1,1-1.758,0V272H6.575l2.273,2.273v3.163a2.637,2.637,0,1,1-1.758,0V275l-3-3H0v14.063H30V272Z" transform="translate(0 -272)" fill="#fff"/>
    </g>
  </g>
  <g id="组_596" data-name="组 596" transform="translate(21.152 22.969)">
    <g id="组_595" data-name="组 595">
      <path id="路径_493" data-name="路径 493" d="M361.879,392a.879.879,0,1,0,.879.879A.88.88,0,0,0,361.879,392Z" transform="translate(-361 -392)" fill="#fff"/>
    </g>
  </g>
  <g id="组_598" data-name="组 598" transform="translate(7.09 22.969)">
    <g id="组_597" data-name="组 597">
      <path id="路径_494" data-name="路径 494" d="M121.879,392a.879.879,0,1,0,.879.879A.88.88,0,0,0,121.879,392Z" transform="translate(-121 -392)" fill="#fff"/>
    </g>
  </g>
</svg>
