<?xml version="1.0" encoding="utf-8"?>
<!-- Generator: Adobe Illustrator 22.0.1, SVG Export Plug-In . SVG Version: 6.00 Build 0)  -->
<svg version="1.1" id="Capa_1" xmlns="http://www.w3.org/2000/svg" xmlns:xlink="http://www.w3.org/1999/xlink" x="0px" y="0px"
	 viewBox="0 0 512 512" style="enable-background:new 0 0 512 512;" xml:space="preserve">
<style type="text/css">
	.st0{fill:#C7B299;}
	.st1{fill:#AEEBFC;}
	.st2{fill:#81DDFD;}
	.st3{fill:#30CDFA;}
	.st4{fill:#89786B;}
	.st5{fill:#F3E64D;}
</style>
<path class="st0" d="M431,62.5H78.5c-8.3,0-15,6.8-15,15v357.8c0,8.3,6.8,15,15,15H431c8.3,0,15-6.8,15-15V77.5
	C446,69.3,439.3,62.5,431,62.5z"/>
<path class="st1" d="M432.8,130L432.8,130c-20.7,0-31.6,5.4-41.2,10.2c-4.1,2.1-7.8,3.9-12.3,5.3c-0.6,0.2-1.1,0.3-1.7,0.5
	c-1.2,0.3-2.4,0.6-3.7,0.8c-3.3,0.6-7,0.9-11.6,0.9c-9.1,0-15.1-1.3-20.3-3.3c-3.1-1.2-6-2.6-9.1-4.2c-9.6-4.8-20.4-10.2-41.2-10.2
	c-16.9,0-27.2,3.6-35.5,7.5c-1.9,0.9-3.8,1.8-5.5,2.7c-0.6,0.3-1.2,0.6-1.8,0.9c-0.4,0.2-0.7,0.3-1.1,0.5l0,0
	c-7.1,3.5-13.6,6-26.4,6c-14.5,0-21.1-3.3-29.4-7.4c-9.6-4.8-20.4-10.2-41.2-10.2c-17,0-27.3,3.6-35.7,7.6v93.7h132.8h184.9l0,0
	L446,197v-67H432.8z"/>
<path class="st2" d="M432.8,181.7L432.8,181.7c-20.7,0-31.6,5.4-41.2,10.2c-4.1,2.1-7.8,3.9-12.3,5.3c-0.6,0.2-1.1,0.3-1.7,0.5
	c-1.2,0.3-2.4,0.6-3.7,0.8c-3.3,0.6-7,0.9-11.6,0.9c-9.1,0-15.1-1.3-20.3-3.3c-3.1-1.2-6-2.6-9.1-4.2c-9.6-4.8-20.4-10.2-41.2-10.2
	c-16.9,0-27.2,3.6-35.5,7.5c-1.9,0.9-3.8,1.8-5.5,2.7c-0.6,0.3-1.2,0.6-1.8,0.9c-0.4,0.2-0.7,0.3-1.1,0.5l0,0
	c-7.1,3.5-13.6,6-26.4,6c-14.5,0-21.1-3.3-29.4-7.4c-9.6-4.8-20.4-10.2-41.2-10.2c-17,0-27.3,3.6-35.7,7.6V283h132.8h184.9l0,0
	l13.2-34.3v-67H432.8z"/>
<path class="st3" d="M445.6,236c-2.7-0.4-5.7-0.7-9-0.8c-1.2,0-2.5-0.1-3.8-0.1l0,0c-5.5,0-10.1,0.4-14.2,1.2
	c-1.6,0.3-3.1,0.6-4.6,1c-5.8,1.5-10.4,3.6-14.8,5.8c-1.1,0.5-2.2,1.1-3.3,1.6c-4.4,2.2-9,4.3-14.8,5.8c-1.4,0.4-3,0.7-4.6,1
	c-4.1,0.7-8.7,1.2-14.2,1.2c-35.2,0-35.2-17.6-70.4-17.6c-1,0-1.9,0-2.8,0c-0.2,0-0.5,0-0.7,0c-0.9,0-1.8,0.1-2.6,0.1
	c-0.1,0-0.2,0-0.3,0c-0.7,0.1-1.4,0.1-2.1,0.2c-0.3,0-0.6,0.1-0.8,0.1c-0.6,0.1-1.3,0.1-1.9,0.2c-0.3,0-0.7,0.1-1,0.1
	c-0.4,0.1-0.9,0.1-1.3,0.2c-0.3,0.1-0.7,0.1-1,0.2c-0.3,0.1-0.7,0.1-1,0.2c-0.6,0.1-1.3,0.3-1.9,0.4c-0.2,0-0.4,0.1-0.6,0.1
	c-18.7,4.6-24.5,15.6-52.3,15.6c-35.2,0-35.2-17.6-70.4-17.6c-18.1,0-26.9,4.6-36,9.1v146.6H248h184.9l0,0c7.3,0,13.2-6,13.2-13.2
	V236C445.9,236,445.7,236,445.6,236z"/>
<path class="st4" d="M447,382.6c-1-1.7-2.7-1.6-4.3-1.6c-38.3-0.1-142,0.1-150.5-0.7c-39.9-3.8-73.3-33.4-80.6-72.9
	c-5-27.1-7.7-54.6-12.2-81.8c-2.7-21.5-5.9-42.9-9.1-64.3c-0.3-2.1-1.6-4-1-6.2c-1.4-3.5-2.4-7.1-3.6-10.6
	c-5.3-15.6-13.6-29.6-24.9-41.5C141.2,82.6,118.1,68.8,89,67.2c-6-0.3-11.9-1.1-17.9-0.2c-4.3,0.6-7.6,4.6-7.6,10.2
	c0,122,0,234,0,356c0.4,15.6,8.3,17.5,14.3,17.5c30.1,0,56.1,0,86.3,0c52.9,0,105.7,0.1,158.6,0c0.3-0.1,0.5-0.2,0.7-0.4
	c2.2,0,4.3,0.1,6.5,0.1c36.3,0,72.5,0,108.8,0c5.8-1.5,8.6-5.4,8.7-12.3c0.1-11.6,0.1-23.2,0-34.9
	C447.2,396.3,447.6,389.4,447,382.6z"/>
<path class="st5" d="M353.1,296.1c-7.5-7.7-15.1-15.2-22.7-22.8c-2-2-4.4-3.2-7.4-3c-0.1-0.1-0.2-0.2-0.3-0.3c-3,0.4-5.8,1.3-8,3.6
	c-7.4,7.5-14.9,14.8-22.2,22.3c-4.6,4.7-4.5,11.4-0.1,15.8s10.6,4.5,15.5,0.3c1-0.8,1.7-2.1,3.7-2.2c0,1.6,0,2.9,0,4.3
	c0,10.7,0,21.5,0,32.2c0,8.9,2.6,12.2,11.2,14c0.1-0.1,0.2-0.2,0.3-0.3c7.2-0.8,11.1-5.1,11.1-12.4c0.1-11.2,0-22.5,0-33.7
	c0-1.3-0.4-2.7,0.5-3.9c1.3,0.2,1.9,1.2,2.7,1.9c5,4.4,11.3,4.3,15.8-0.2C357.6,307.3,357.8,300.9,353.1,296.1z"/>
</svg>
