<?xml version="1.0" encoding="utf-8"?>
<!-- Generator: Adobe Illustrator 22.0.1, SVG Export Plug-In . SVG Version: 6.00 Build 0)  -->
<svg version="1.1" id="圖層_1" xmlns="http://www.w3.org/2000/svg" xmlns:xlink="http://www.w3.org/1999/xlink" x="0px" y="0px"
	 viewBox="0 0 120 120" style="enable-background:new 0 0 120 120;" xml:space="preserve">
<style type="text/css">
	.st0{fill:#087CBF;}
	.st1{fill:#FFFFFF;}
</style>
<g id="icon-water-pump" transform="translate(-730 -262)">
	<circle id="椭圆_2" class="st0" cx="790" cy="322" r="60"/>
	<g id="组_444" transform="translate(751.6 284.8)">
		<path id="路径_464" class="st1" d="M2.5,45.3c6.9,0,12.6-5.6,12.6-12.6v-7.5h5v17.6c0,1.4,1.1,2.5,2.5,2.5l0,0h2.5V77h5V45.3
			h7.8V77h5V45.3h2.5c1.4,0,2.5-1.1,2.5-2.5l0,0v-2.5h7.5c1.4,0,2.5,1.1,2.5,2.5v5c0,1.4,1.1,2.5,2.5,2.5l0,0h10
			c1.4,0,2.5-1.1,2.5-2.5l0,0v-5c0-9.7-7.9-17.6-17.6-17.6H48v-2.5c0-1.4-1.1-2.5-2.5-2.5c0,0,0,0,0,0h-7.5v-5.5c3-1.1,5-3.9,5-7.1
			c0-4.2-3.4-7.2-7.5-7.5c-2.9-0.3-8.1,0.3-9.9,5h-2.9c-6.9,0-12.5,5.6-12.6,12.6v15.1c0,4.2-3.4,7.5-7.5,7.5
			c-1.4,0-2.5,1.2-2.5,2.6C0.1,44.1,1.2,45.2,2.5,45.3L2.5,45.3z M48,30.2h7.5c6.9,0,12.5,5.6,12.6,12.6v2.5h-5v-2.5
			c0-4.2-3.4-7.5-7.5-7.5H48L48,30.2z M42.9,25.2v15.1H25.1V25.2H42.9z M34,3.7c2.6,0,4.6,1.7,4.6,3.8s-2.1,3.8-4.6,3.8
			s-4.6-1.7-4.6-3.8S31.4,3.7,34,3.7z M15.1,17.6c0-4.2,3.4-7.5,7.5-7.5h2.9c0.8,2.1,2.4,3.8,4.6,4.6v5.5H15.1V17.6z"/>
		<path id="路径_465" class="st1" d="M72.1,62.5L67.7,55c-0.7-1.2-2.2-1.6-3.4-0.9c-0.4,0.2-0.7,0.5-0.9,0.9L59,62.5
			c-2.1,3.6-0.8,8.2,2.8,10.3s8.2,0.8,10.3-2.8C73.4,67.7,73.4,64.9,72.1,62.5z"/>
	</g>
</g>
</svg>
