<?xml version="1.0" encoding="utf-8"?>
<!-- Generator: Adobe Illustrator 22.0.1, SVG Export Plug-In . SVG Version: 6.00 Build 0)  -->
<svg version="1.1" id="Capa_1" xmlns="http://www.w3.org/2000/svg" xmlns:xlink="http://www.w3.org/1999/xlink" x="0px" y="0px"
	 viewBox="0 0 512 512" style="enable-background:new 0 0 512 512;" xml:space="preserve">
<style type="text/css">
	.st0{fill:#00BCFC;}
	.st1{fill:#30CDFA;}
	.st2{fill:#81DDFD;}
	.st3{fill:#F3E64D;}
	.st4{fill:#F2C13B;}
</style>
<g>
	<path class="st0" d="M183.1,341.2l-27.8-26.8c-25.2-24.2-65-24.2-90.1,0l-27.8,26.8l73.6,86.9L183.1,341.2z"/>
	<path class="st1" d="M110.9,428.1h290.3l73.6-86.9l-27.8-26.8c-25.2-24.2-65-24.2-90.1,0l-27.8,26.8l-27.8-26.8
		c-25.2-24.2-65-24.2-90.1,0l-27.8,26.8L110.9,428.1z"/>
	<path class="st2" d="M453.4,314.9l-11.6,5.8c-23.4,11.7-50.9,11.7-74.3,0c-23.4-11.7-50.9-11.7-74.3,0c-23.4,11.7-50.9,11.7-74.3,0
		c-23.4-11.7-50.9-11.7-74.3,0c-5.9,3-12.1,5.2-18.4,6.6C86.9,374.1,98,445.6,182.5,461.9h243.8c29.1,0,52.7-23.6,52.7-52.7v-78.6
		C479,317.5,465.2,309,453.4,314.9L453.4,314.9z"/>
	<path class="st1" d="M126.1,327.3c-18.6,4.3-38.4,2.1-55.9-6.6l-11.6-5.8C46.8,309,33,317.5,33,330.7v78.6
		c0,29.1,23.6,52.7,52.7,52.7h96.8C125.5,442.9,116.3,374.1,126.1,327.3z"/>
	<g>
		<path class="st1" d="M125.7,235.4c22.9-1.2,40.7-20.8,40.1-43.7c-0.6-21.5-14.3-42.1-28.2-57.2c-7.7-8.3-20.7-8.1-28.3,0.1
			c-14.2,15.4-28.1,36.5-28.1,58.5C81.1,217.2,101.3,236.6,125.7,235.4z"/>
		<path class="st0" d="M157.5,218c-59.2,7-62.2-54-50.7-80.7c-13.3,15.1-25.7,35-25.7,55.7c0,24.1,20.2,43.6,44.6,42.3
			C138.8,234.7,150.3,228,157.5,218L157.5,218z"/>
	</g>
	<g>
		<path class="st1" d="M241.5,160.1c22.9-1.2,40.7-20.8,40.1-43.7c-0.6-21.5-14.3-42.1-28.2-57.2c-7.7-8.3-20.7-8.1-28.3,0.1
			c-14.2,15.4-28.1,36.5-28.1,58.5C196.9,141.9,217.1,161.3,241.5,160.1L241.5,160.1z"/>
		<path class="st0" d="M273.3,142.7c-59.2,7-62.2-54-50.7-80.7c-13.3,15.1-25.7,35-25.7,55.7c0,24.1,20.2,43.6,44.6,42.3
			C254.5,159.4,266,152.7,273.3,142.7L273.3,142.7z"/>
	</g>
	<path class="st3" d="M385.1,431.7h-30.6c-12.8,0-23.1-10.4-23.1-23.1V199.9c0-12.8,10.4-23.1,23.1-23.1h30.6
		c12.8,0,23.1,10.4,23.1,23.1v208.6C408.2,421.3,397.9,431.7,385.1,431.7z"/>
	<g>
		<path class="st4" d="M378.5,398.6h-17.4c-3.6,0-6.5-2.9-6.5-6.5s2.9-6.5,6.5-6.5h17.4c3.6,0,6.5,2.9,6.5,6.5
			S382.2,398.6,378.5,398.6z"/>
		<path class="st4" d="M378.5,310.8h-17.4c-3.6,0-6.5-2.9-6.5-6.5c0-3.6,2.9-6.5,6.5-6.5h17.4c3.6,0,6.5,2.9,6.5,6.5
			C385.1,307.8,382.2,310.8,378.5,310.8z"/>
		<path class="st4" d="M378.5,354.7h-17.4c-3.6,0-6.5-2.9-6.5-6.5s2.9-6.5,6.5-6.5h17.4c3.6,0,6.5,2.9,6.5,6.5
			S382.2,354.7,378.5,354.7z"/>
		<path class="st4" d="M378.5,266.9h-17.4c-3.6,0-6.5-2.9-6.5-6.5c0-3.6,2.9-6.5,6.5-6.5h17.4c3.6,0,6.5,2.9,6.5,6.5
			C385.1,263.9,382.2,266.9,378.5,266.9z"/>
		<path class="st4" d="M378.5,222.9h-17.4c-3.6,0-6.5-2.9-6.5-6.5c0-3.6,2.9-6.5,6.5-6.5h17.4c3.6,0,6.5,2.9,6.5,6.5
			C385.1,220,382.2,222.9,378.5,222.9z"/>
	</g>
</g>
</svg>
