<?xml version="1.0" encoding="utf-8"?>
<!-- Generator: Adobe Illustrator 22.0.1, SVG Export Plug-In . SVG Version: 6.00 Build 0)  -->
<svg version="1.1" id="Capa_1" xmlns="http://www.w3.org/2000/svg" xmlns:xlink="http://www.w3.org/1999/xlink" x="0px" y="0px"
	 viewBox="0 0 512 512" style="enable-background:new 0 0 512 512;" xml:space="preserve">
<style type="text/css">
	.st0{fill:#E0E0E0;}
	.st1{fill:#CCCCCC;}
	.st2{fill:#00CEF5;}
	.st3{fill:#00C0F1;}
	.st4{fill:#EDE9E8;}
	.st5{fill:#3AAAFF;}
	.st6{fill:#239DE8;}
</style>
<path class="st0" d="M446.1,383.5c0.8,7.1-4.5,13.1-11.6,13.6H78.4c-7.1-0.5-12.3-6.6-11.6-13.6l18.6-241.7l32-25.2h278l32,25.2
	L446.1,383.5z"/>
<g>
	<path class="st1" d="M446.1,383.5c0.8,7.1-4.5,13.1-11.6,13.6H256V116.6h139.4l32,25.2L446.1,383.5z"/>
	<path class="st1" d="M420.5,52.6C420,46,414.6,41,408,41h-75.6c-7,0-12.6,5.6-12.6,12.6v37.8l63,25.2l40.7-25.2L420.5,52.6z"/>
</g>
<path class="st0" d="M193,53.6c0-7-5.6-12.6-12.6-12.6h-75.6c-6.6,0-12.1,5-12.6,11.6l-2.9,38.8l53.3,25.2L193,91.4V53.6z"/>
<g>
	<path class="st2" d="M180.4,445.8H130V217.4c0-13.9,11.3-25.2,25.2-25.2l0,0c13.9,0,25.2,11.3,25.2,25.2V445.8z"/>
	<path class="st2" d="M281.2,217.4v228.4h-50.4V217.4c0-13.9,11.3-25.2,25.2-25.2S281.2,203.5,281.2,217.4z"/>
</g>
<g>
	<path class="st3" d="M382.8,445.8h-50.4V217.4c0-13.9,11.3-25.2,25.2-25.2l0,0c13.9,0,25.2,11.3,25.2,25.2V445.8z"/>
	<path class="st3" d="M281.2,217.4v228.4H256V192.2C269.9,192.2,281.2,203.5,281.2,217.4z"/>
</g>
<polygon class="st4" points="427.4,141.8 85.4,141.8 89.2,91.4 423.6,91.4 "/>
<polygon class="st0" points="427.4,141.8 256,141.8 256,91.4 423.6,91.4 "/>
<path class="st5" d="M458.4,369.4c-28.2,0-43.1,7.3-55.9,13.9c-6.8,3.5-13.1,6.6-21.2,8.6c-6.8,1.8-14.6,2.8-23.7,2.8
	c-22.2,0-32.8-5.3-44.8-11.3c-12.8-6.6-28.6-13.9-56.8-13.9s-43.1,7.3-55.9,13.9c-12.1,6-22.7,11.3-44.8,11.3s-32.8-5.3-44.8-11.3
	c-12.8-6.6-28.6-13.9-56.8-13.9c-7.1,0-12.6,5.5-12.6,12.6v76.4c0,7.1,5.5,12.6,12.6,12.6h404.8c7.1,0,12.6-5.5,12.6-12.6V382
	C471,374.9,465.5,369.4,458.4,369.4z"/>
<path class="st6" d="M471,382v76.4c0,7.1-5.5,12.6-12.6,12.6H256V369.4c28.2,0,43.9,7.3,56.8,13.9c12.1,6,22.7,11.3,44.8,11.3
	c9.1,0,16.9-1,23.7-2.8c8.1-2,14.4-5,21.2-8.6c12.8-6.6,27.7-13.9,55.9-13.9C465.5,369.4,471,374.9,471,382z"/>
</svg>
