<?xml version="1.0" encoding="utf-8"?>
<!-- Generator: Adobe Illustrator 22.0.1, SVG Export Plug-In . SVG Version: 6.00 Build 0)  -->
<svg version="1.1" id="圖層_1" xmlns="http://www.w3.org/2000/svg" xmlns:xlink="http://www.w3.org/1999/xlink" x="0px" y="0px"
	 viewBox="0 0 512 512" style="enable-background:new 0 0 512 512;" xml:space="preserve">
<style type="text/css">
	.st0{fill:#FDCB6B;}
	.st1{fill:#FD4FB6;}
	.st2{fill:#FD2AA7;}
	.st3{fill:#03BDD6;}
	.st4{fill:#2ED0E1;}
	.st5{fill:#0DB2CC;}
	.st6{fill:#6C7FD7;}
	.st7{fill:#4F66CF;}
</style>
<path class="st0" d="M52.9,232.3c-9.2,2.5-17.8-5.5-15.9-14.8C57.3,114.8,147.8,37.4,256.4,37.4c108.6,0,199.1,77.5,219.4,180.1
	c1.9,9.4-6.9,17.2-16.1,14.7c-19.4-5.2-47.5-11.3-59.1-3.1c-17.3,12.1-40.3,12.1-57.7,0c-17.3-12.1-40.3-12.1-57.7,0
	c-17.3,12.1-40.3,12.1-57.7,0c-17.3-12.1-40.3-12.1-57.7,0c-17.3,12.1-40.3,12.1-57.7,0C100.5,221,72.3,227.1,52.9,232.3z"/>
<path class="st1" d="M311.3,359.6l-47.3,74.3c-3.6,5.6-11.8,5.6-15.4,0l-47.3-74.3c-3.9-6.1,0.5-14,7.7-14h15.3V119.9h-15.3
	c-7.2,0-11.6-8-7.7-14l47.3-74.3c3.6-5.6,11.8-5.6,15.4,0l47.3,74.3c3.9,6.1-0.5,14-7.7,14h-15.3v225.7h15.3
	C310.8,345.6,315.2,353.5,311.3,359.6z"/>
<path class="st2" d="M253.8,194.8v75.6c0,48.7,5.2,97.2,15.6,144.8l1.7,7.6l-7,11c-3.6,5.6-11.8,5.6-15.4,0l-47.3-74.3
	c-3.9-6.1,0.5-14,7.7-14h15.3V119.9h-15.3c-7.2,0-11.6-8-7.7-14l47.3-74.3c3.6-5.6,11.8-5.6,15.4,0l7,11
	C259.6,92.5,253.8,143.6,253.8,194.8z"/>
<path class="st3" d="M68.3,347.8c-8.3,4-18.3-0.2-21.6-8.8c-9-24.3-14-50.5-14-78c0-14.9,1.5-29.4,4.2-43.5
	c12.6,3.3,26.4,1.1,37.6-6.6c15.6-10.9,36.3-10.9,51.9,0c15.6,10.9,36.3,10.9,51.9,0c15.6-10.9,36.3-10.9,51.9,0
	c15.6,10.9,36.3,10.9,51.9,0c15.6-10.9,36.3-10.9,51.9,0c15.6,10.9,36.3,10.9,51.9,0c15.6-10.9,36.3-10.9,51.9,0
	c11.2,7.8,24.9,10,37.6,6.6c2.8,14.1,4.2,28.6,4.2,43.5c0,27.4-5,53.7-14,78c-3.2,8.7-13.2,12.8-21.6,8.8c-2.2-1-4.3-2.3-6.3-3.7
	c-15.6-10.9-36.3-10.9-51.9,0c-15.6,10.9-36.3,10.9-51.9,0c-15.6-10.9-36.3-10.9-51.9,0c-15.6,10.9-36.3,10.9-51.9,0
	c-15.6-10.9-36.3-10.9-51.9,0c-15.6,10.9-36.3,10.9-51.9,0c-15.6-10.9-36.3-10.9-51.9,0C72.6,345.5,70.5,346.8,68.3,347.8z"/>
<path class="st4" d="M466,339c-31.7,85-113.6,145.6-209.6,145.6S78.4,424,46.7,339c9.7,0.4,19.5-2.3,27.8-8.1
	c15.6-10.9,36.3-10.9,51.9,0s36.3,10.9,51.9,0s36.3-10.9,51.9,0s36.3,10.9,51.9,0s36.3-10.9,51.9,0c15.6,10.9,36.3,10.9,51.9,0
	c15.6-10.9,36.3-10.9,51.9,0C446.5,336.7,456.3,339.4,466,339z"/>
<path class="st5" d="M102.1,336c-9.6-0.3-19.3,2.4-27.5,8.1c-2,1.4-4.1,2.6-6.3,3.7c-8.3,4-18.3-0.2-21.6-8.8c-9-24.3-14-50.5-14-78
	c0-14.9,1.5-29.4,4.2-43.5c12.6,3.3,26.4,1.1,37.6-6.6c6.7-4.7,14.4-7.4,22.2-8c-5,18.5-7.7,38-7.7,58.1
	C89.2,287.3,93.7,312.6,102.1,336z"/>
<path class="st3" d="M284.6,482.9c-9.2,1.2-18.6,1.8-28.2,1.8c-96.1,0-178-60.6-209.6-145.6c9.7,0.4,19.5-2.3,27.8-8.1
	c7-4.9,15.1-7.6,23.2-8.1C122.1,407.5,195.1,471.6,284.6,482.9z"/>
<path class="st6" d="M248.7,433.9l-47.3-74.3c-3.9-6.1,0.5-14,7.7-14h15.3V207.4c2.1,1,4.1,2.2,6,3.5c15.6,10.9,36.3,10.9,51.9,0
	c1.9-1.3,3.9-2.5,6-3.5v138.2h15.3c7.2,0,11.6,8,7.7,14l-47.3,74.3C260.5,439.5,252.3,439.5,248.7,433.9z"/>
<path class="st7" d="M248.7,433.9l-47.3-74.3c-3.9-6.1,0.5-14,7.7-14h15.3V207.4c2.1,1,4.1,2.2,6,3.5c7.1,4.9,15.2,7.6,23.4,8.1
	v51.5c0,48.7,5.2,97.2,15.6,144.8l1.7,7.6l-7,11C260.5,439.5,252.3,439.5,248.7,433.9z"/>
</svg>
