<?xml version="1.0" encoding="utf-8"?>
<!-- Generator: Adobe Illustrator 22.0.1, SVG Export Plug-In . SVG Version: 6.00 Build 0)  -->
<svg version="1.1" id="icon-success" xmlns="http://www.w3.org/2000/svg" xmlns:xlink="http://www.w3.org/1999/xlink" x="0px"
	 y="0px" viewBox="0 0 100 100" style="enable-background:new 0 0 100 100;" xml:space="preserve">
<style type="text/css">
	.st0{fill:#17A666;}
	.st1{fill:#199359;}
	.st2{fill:#FFFFFF;}
</style>
<path id="路径_453" class="st0" d="M50,0c27.6,0,50,22.4,50,50s-22.4,50-50,50S0,77.6,0,50S22.4,0,50,0z"/>
<path id="路径_450" class="st1" d="M37.2,72.6l25.7,25.7C84.8,92.4,100,72.6,100,50v-1.4L79.8,30L37.2,72.6z"/>
<g id="组_392" transform="translate(16.798 24.685)">
	<path id="路径_451" class="st2" d="M34.5,36.5c2.2,2.3,2.2,5.9,0,8.2l-4.6,4.6c-2.3,2.2-5.9,2.2-8.2,0l-20-20.2
		c-2.2-2.3-2.2-5.9,0-8.2l4.6-4.6c2.3-2.2,5.9-2.2,8.2,0L34.5,36.5z"/>
	<path id="路径_452" class="st2" d="M52,1.7c2.3-2.2,5.9-2.2,8.2,0l4.6,4.6c2.2,2.3,2.2,5.9,0,8.2L30,49c-2.3,2.2-5.9,2.2-8.2,0
		l-4.6-4.6c-2.2-2.3-2.2-5.9,0-8.2L52,1.7z"/>
</g>
</svg>
