<?xml version="1.0" encoding="utf-8"?>
<!-- Generator: Adobe Illustrator 22.0.1, SVG Export Plug-In . SVG Version: 6.00 Build 0)  -->
<svg version="1.1" id="圖層_1" xmlns="http://www.w3.org/2000/svg" xmlns:xlink="http://www.w3.org/1999/xlink" x="0px" y="0px"
	 viewBox="0 0 150 150" style="enable-background:new 0 0 150 150;" xml:space="preserve">
<style type="text/css">
	.st0{fill:#079ADF;}
	.st1{fill:none;stroke:#2FAAE5;}
	.st2{fill:#FFFFFF;}
	.st3{font-family:'NotoSansCJKtc-Bold-B5pc-H';}
	.st4{font-size:22px;}
</style>
<g id="icon-pumping-station" transform="translate(2860 -6243)">
	<g id="组_500" transform="translate(-3785 4645)">
		<g id="椭圆_39" transform="translate(925 1598)">
			<circle class="st0" cx="75" cy="75" r="75"/>
			<circle class="st1" cx="75" cy="75" r="74.5"/>
		</g>
		<text transform="matrix(1 0 0 1 956 1719.259)" class="st2 st3 st4">運作狀態</text>
	</g>
	<g id="组_632" transform="translate(-2873 6183.206)">
		<path id="路径_511" class="st2" d="M104.2,98.6c0.8,0,15.1,0,15.2,0c0.9,0,1.7-0.7,1.7-1.7v-5.5c0-0.9-0.7-1.7-1.7-1.7h-15.5
			c-2.2-0.1-4.4,0.6-6.1,1.9c-1.9,1.6-3,4.1-2.9,6.6v3.5l0,0c-0.9,0-1.7,0.7-1.7,1.7v5.4h-1.8v0c0-1.6-1.3-2.9-2.9-2.9h-3.7
			c-1.6,0-2.9,1.3-2.9,2.9v0h-2.8v-1.5c0-2.7-2.2-4.8-4.8-4.8H71c-2.7,0-4.8,2.2-4.8,4.8v1.6c-8.7,0.9-15,8.7-14.1,17.4
			c0.8,7.4,6.6,13.3,14,14v5.1H53.7c-0.9,0-1.6,0.7-1.7,1.6c0,0.5,0.1,0.9,0.4,1.3c0.3,0.3,0.8,0.5,1.2,0.5h65.7
			c0.9,0,1.6-0.7,1.7-1.6c0-0.5-0.1-0.9-0.4-1.3c-0.3-0.3-0.8-0.5-1.2-0.5H78.1v-5h3.8v0c0,1.6,1.3,2.9,2.9,2.9h3.7
			c1.6,0,2.9-1.3,2.9-2.9v0h18.4c0.9,0,1.7-0.7,1.7-1.7v-5.2h8c0.9,0,1.7-0.7,1.7-1.7v-14.5c0-0.9-0.7-1.7-1.7-1.7h-8v-5.2
			c0-0.9-0.7-1.7-1.7-1.7h-3.9v-5.4c0-0.9-0.8-1.7-1.7-1.7l0,0C104.2,100.5,104.2,98.7,104.2,98.6C104.2,98.6,104.2,98.6,104.2,98.6
			z M89.7,128.9c-0.9,0-1.7,0.7-1.7,1.7v9.4h-2.8v-30.7H88v9.3c0,0.9,0.7,1.7,1.7,1.7c0.9,0,1.7-0.7,1.7-1.7v-6.4h16.7v24.9H91.4
			v-6.4C91.4,129.7,90.6,128.9,89.7,128.9z M103.9,93.1h13.9v2.1l-13.2,0c-1-0.1-2,0.3-2.8,0.9c-0.7,0.8-1,1.7-0.9,2.7v2.8h-2.6
			v-3.5C98.2,94.9,100.1,93.1,103.9,93.1L103.9,93.1z M96.6,108.8v-3.7h6v3.7H96.6z M74.8,140.4v5h-5.3v-5H74.8z M71,105.9h3.3
			c0.8,0,1.5,0.7,1.5,1.5c0,0,0,0,0,0v1.5h-6.3v-1.5C69.5,106.5,70.1,105.9,71,105.9L71,105.9z M81.9,112.2v24.9H67.8
			c-6.9,0-12.4-5.6-12.4-12.4c0-6.9,5.6-12.4,12.4-12.4H81.9z M111.4,130.2v-11.1h6.3v11.1L111.4,130.2z"/>
		<path id="路径_512" class="st2" d="M74,126.3h3.5c0.9,0,1.7-0.7,1.7-1.6c0-0.9-0.7-1.7-1.6-1.7c0,0-0.1,0-0.1,0H74
			c-0.9,0-1.7,0.7-1.7,1.6C72.3,125.5,73,126.3,74,126.3C74,126.3,74,126.3,74,126.3z"/>
		<path id="路径_513" class="st2" d="M74,119.6h3.5c0.9,0,1.7-0.7,1.7-1.7c0-0.9-0.7-1.7-1.7-1.7H74c-0.9,0-1.7,0.7-1.7,1.7
			C72.4,118.9,73.1,119.6,74,119.6z"/>
		<path id="路径_514" class="st2" d="M74,133h3.5c0.9,0,1.7-0.7,1.7-1.7c0-0.9-0.7-1.7-1.7-1.7H74c-0.9,0-1.7,0.7-1.7,1.7
			C72.4,132.2,73.1,133,74,133z"/>
		<path id="路径_515" class="st2" d="M89.7,122.9c-0.9,0-1.7,0.7-1.7,1.7s0.7,1.7,1.7,1.7c0.9,0,1.7-0.7,1.7-1.7c0,0,0,0,0,0
			C91.4,123.7,90.6,122.9,89.7,122.9z"/>
	</g>
</g>
</svg>
