<?xml version="1.0" encoding="utf-8"?>
<!-- Generator: Adobe Illustrator 22.0.1, SVG Export Plug-In . SVG Version: 6.00 Build 0)  -->
<svg version="1.1" id="圖層_1" xmlns="http://www.w3.org/2000/svg" xmlns:xlink="http://www.w3.org/1999/xlink" x="0px" y="0px"
	 viewBox="0 0 100 89.7" style="enable-background:new 0 0 100 89.7;" xml:space="preserve">
<style type="text/css">
	.st0{fill:#079ADF;}
</style>
<g id="icon-notice" transform="translate(0 -20.495)">
	<path id="路径_385" class="st0" d="M94,39.7c-0.8-1.1-2.3-1.4-3.5-0.6c-1.1,0.8-1.4,2.3-0.6,3.5c3.4,5,5.1,10.8,5.1,16.8
		c0,6.1-1.8,12-5.2,17c-0.8,1.1-0.5,2.7,0.6,3.5s2.7,0.5,3.5-0.6C102,67.4,102,51.7,94,39.7L94,39.7z"/>
	<path id="路径_386" class="st0" d="M85.8,46.8c-0.8-1.1-2.3-1.4-3.5-0.6c-1.1,0.8-1.4,2.3-0.6,3.5c2,2.9,3,6.3,3,9.8
		c0,3.5-1,7-3,9.9c-0.8,1.1-0.5,2.7,0.6,3.5s2.7,0.5,3.5-0.6c0,0,0,0,0,0C90.9,64.5,90.9,54.5,85.8,46.8L85.8,46.8z"/>
	<path id="路径_387" class="st0" d="M75.9,20.5c-1.4,0.1-2.7,0.9-3.4,2c-0.1,0.1-8.5,10.9-29.3,17.3c-2,0.6-4.2,1-4.2,1
		c-0.5,0.1-1,0.2-1.4,0.5c-0.9-1.5-2.5-2.4-4.3-2.4H12.2c-2.8,0-5,2.2-5,5v2.7c-0.4-0.1-0.7-0.1-1.1-0.1C2.7,46.6,0,49,0,51.9v13.8
		c0,2.9,2.7,5.3,6.1,5.3c0.4,0,0.7,0,1.1-0.1v2.2c0,2.8,2.2,5,5,5h0.7l6.4,26.4c0.9,3.2,3.7,5.5,7.1,5.6H33c2.9,0.1,5.4-2.2,5.5-5.1
		c0-0.5,0-1.1-0.2-1.6l-6.1-25.2h1c1.8,0,3.4-0.9,4.3-2.4c0.5,0.2,0.9,0.4,1.4,0.5c0,0,2.2,0.4,4.2,1c20.9,6.4,29.2,17.2,29.3,17.3
		c0.7,1.2,2,2,3.4,2.1l0,0c1.2,0,2.4-0.7,2.9-1.9c0.3-0.8,0.5-1.6,0.5-2.4V24.8C79.3,20.6,76.3,20.5,75.9,20.5z M6.1,66.1
		c-0.4,0-0.8-0.1-1.1-0.4V52c0.3-0.3,0.7-0.4,1.1-0.4c0.4,0,0.8,0.1,1.1,0.4v13.7C6.9,66,6.5,66.1,6.1,66.1z M33.5,104.7
		c0.1,0.2,0.1,0.4-0.1,0.5c-0.1,0.1-0.2,0.1-0.3,0h-6.7c-1-0.1-1.9-0.8-2.2-1.7L18,78.3h9.1L33.5,104.7z M12.2,73.3V43.9h21.1v25.4
		c0,0,0,0,0,0v3.9L12.2,73.3z M74.3,89.1c-3.9-3.9-13.1-11.5-29.6-16.6c-2.2-0.7-4.6-1.2-4.7-1.2c-0.9-0.3-1.6-1.1-1.7-2V47.8
		c0.1-1,0.7-1.8,1.7-2c0.1,0,2.5-0.5,4.7-1.2C61.1,39.6,70.3,32,74.3,28.1L74.3,89.1z"/>
</g>
</svg>
