<?xml version="1.0" encoding="utf-8"?>
<!-- Generator: Adobe Illustrator 22.0.1, SVG Export Plug-In . SVG Version: 6.00 Build 0)  -->
<svg version="1.1" id="圖層_1" xmlns="http://www.w3.org/2000/svg" xmlns:xlink="http://www.w3.org/1999/xlink" x="0px" y="0px"
	 viewBox="0 0 120 120" style="enable-background:new 0 0 120 120;" xml:space="preserve">
<style type="text/css">
	.st0{fill:#087CBF;}
	.st1{fill:#FFFFFF;}
</style>
<g id="组_335" transform="translate(-924 -586)">
	<circle id="椭圆_3" class="st0" cx="984" cy="646" r="60"/>
	<g id="组_49" transform="translate(-1.104 22.18)">
		<path id="路径_75" class="st1" d="M990.8,629.4h10.9c1.1,0,2.1-0.9,2.1-2.1v0v-10.9c0-1.1-0.9-2.1-2-2.1c0,0,0,0,0,0h-10.9
			c-1.1,0-2,0.9-2,2.1c0,0,0,0,0,0v10.9C988.7,628.5,989.6,629.4,990.8,629.4C990.8,629.4,990.8,629.4,990.8,629.4z M992.8,618.5
			h6.8v6.8h-6.8V618.5z"/>
		<path id="路径_76" class="st1" d="M952.5,636.9c1.1,0,2.1,0.3,3,1c3.1,2.3,7.4,2.3,10.5,0c1.7-1.4,4.2-1.4,5.9,0
			c3.1,2.3,7.4,2.3,10.5,0c1.7-1.4,4.2-1.4,5.9,0c3.1,2.3,7.4,2.3,10.5,0c1.7-1.4,4.2-1.4,5.9,0c3.1,2.3,7.4,2.3,10.5,0
			c0.8-0.7,1.9-1,3-1c1.1,0,2.1-0.9,2.1-2c0-1.1-0.9-2.1-2-2.1c0,0,0,0,0,0c-1.9,0-3.7,0.6-5.2,1.7c-0.3,0.2-0.6,0.4-0.9,0.6v-20.9
			l2.2,1.7c0.9,0.7,2.2,0.5,2.9-0.4c0.7-0.9,0.5-2.2-0.4-2.9l-30.1-23.4c-0.7-0.6-1.8-0.6-2.5,0L954,612.6c-0.9,0.7-1.1,2-0.4,2.9
			c0.7,0.9,2,1.1,2.9,0.4l0,0l2.2-1.7v20.9c-0.3-0.2-0.6-0.4-0.9-0.6c-1.5-1.1-3.4-1.7-5.2-1.7c-1.1,0-2,0.9-2,2.1
			C950.4,636,951.4,636.9,952.5,636.9L952.5,636.9z M980.5,634.3c-0.2,0.1-0.3,0.2-0.5,0.3c-1.7,1.4-4.2,1.4-5.9,0
			c-1-0.7-2-1.2-3.2-1.5v-14.6h9.6V634.3z M985.3,593.5l22.6,17.5v24.1c-0.3-0.2-0.6-0.4-0.9-0.6c-3.1-2.3-7.4-2.3-10.5,0
			c-1.7,1.4-4.2,1.4-5.9,0c-1.5-1.1-3.3-1.7-5.2-1.7c-0.2,0-0.5,0-0.7,0v-16.4c0-1.1-0.9-2.1-2-2.1c0,0,0,0,0,0h-13.7
			c-1.1,0-2.1,0.9-2.1,2c0,0,0,0,0,0v16.6c-1.2,0.3-2.2,0.8-3.2,1.5c-0.3,0.2-0.6,0.4-0.9,0.6V611L985.3,593.5z"/>
		<path id="路径_77" class="st1" d="M1018.1,642.4c-1.9,0-3.7,0.6-5.2,1.7c-1.7,1.4-4.2,1.4-5.9,0c-3.1-2.3-7.4-2.3-10.5,0
			c-1.7,1.4-4.2,1.4-5.9,0c-3.1-2.3-7.4-2.3-10.5,0c-1.7,1.4-4.2,1.4-5.9,0c-3.1-2.3-7.4-2.3-10.5,0c-1.7,1.4-4.2,1.4-5.9,0
			c-1.5-1.1-3.4-1.7-5.2-1.7c-1.1,0-2,1-2,2.1c0,1.1,0.9,2,2,2c1.1,0,2.1,0.3,3,1c3.1,2.3,7.4,2.3,10.5,0c1.7-1.4,4.2-1.4,5.9,0
			c3.1,2.3,7.4,2.3,10.5,0c1.7-1.4,4.2-1.4,5.9,0c3.1,2.3,7.4,2.3,10.5,0c1.7-1.4,4.2-1.4,5.9,0c3.1,2.3,7.4,2.3,10.5,0
			c0.8-0.7,1.9-1,3-1c1.1,0,2.1-0.9,2.1-2c0-1.1-0.9-2.1-2-2.1C1018.2,642.4,1018.1,642.4,1018.1,642.4L1018.1,642.4z"/>
		<path id="路径_78" class="st1" d="M1018.1,652c-1.9,0-3.7,0.6-5.2,1.7c-1.7,1.4-4.2,1.4-5.9,0c-3.1-2.3-7.4-2.3-10.5,0
			c-1.7,1.4-4.2,1.4-5.9,0c-3.1-2.3-7.4-2.3-10.5,0c-1.7,1.4-4.2,1.4-5.9,0c-3.1-2.3-7.4-2.3-10.5,0c-1.7,1.4-4.2,1.4-5.9,0
			c-1.5-1.1-3.4-1.7-5.2-1.7c-1.1,0-2,1-2,2.1c0,1.1,0.9,2,2,2c1.1,0,2.1,0.3,3,1c3.1,2.3,7.4,2.3,10.5,0c1.7-1.4,4.2-1.4,5.9,0
			c3.1,2.3,7.4,2.3,10.5,0c1.7-1.4,4.2-1.4,5.9,0c3.1,2.3,7.4,2.3,10.5,0c1.7-1.4,4.2-1.4,5.9,0c3.1,2.3,7.4,2.3,10.5,0
			c0.8-0.7,1.9-1,3-1c1.1,0,2.1-0.9,2.1-2c0-1.1-0.9-2.1-2-2.1C1018.2,652,1018.1,652,1018.1,652L1018.1,652z"/>
	</g>
</g>
</svg>
