<?xml version="1.0" encoding="utf-8"?>
<!-- Generator: Adobe Illustrator 22.0.1, SVG Export Plug-In . SVG Version: 6.00 Build 0)  -->
<svg version="1.1" id="Layer_1" xmlns="http://www.w3.org/2000/svg" xmlns:xlink="http://www.w3.org/1999/xlink" x="0px" y="0px"
	 viewBox="0 0 512 512" style="enable-background:new 0 0 512 512;" xml:space="preserve">
<style type="text/css">
	.st0{fill:#C2E5E6;}
	.st1{fill:#98D5D2;}
	.st2{fill:#3B9AD6;}
	.st3{fill:#2880BD;}
</style>
<g>
	<path class="st0" d="M439.5,178.9v240.4H317.5c-8.8,0-16-7.1-16-16V113c0-10,9.2-17.5,19-15.7c17.8,3.3,34.7,10.9,50,20.2
		C411,142.3,439.5,178.9,439.5,178.9z"/>
	<path class="st1" d="M439.5,178.9v240.4h-69V117.6C411,142.3,439.5,178.9,439.5,178.9z"/>
	<path class="st2" d="M503.3,129.5V438c0,8.8-7.1,16-16,16h-36c-8.8,0-16-7.1-16-16V129.5c0-18.8,15.2-34,34-34
		C488.1,95.5,503.3,110.7,503.3,129.5z"/>
	<path class="st3" d="M503.3,129.5V438c0,8.8-7.1,16-16,16h-18V95.5C488.1,95.5,503.3,110.7,503.3,129.5z"/>
	<path class="st0" d="M210.5,113v290.3c0,8.8-7.2,16-16,16H72.5V178.9c0,0,28.5-36.6,69-61.3c15.3-9.3,32.2-16.9,50-20.2
		C201.4,95.5,210.5,103,210.5,113z"/>
	<path class="st1" d="M210.5,113v290.3c0,8.8-7.2,16-16,16h-53V117.6c15.3-9.3,32.2-16.9,50-20.2C201.4,95.5,210.5,103,210.5,113z"
		/>
	<path class="st2" d="M76.7,129.5V438c0,8.8-7.2,16-16,16h-36c-8.8,0-16-7.2-16-16V130.2c0-18.8,15-34.7,34-34.7
		C61.5,95.5,76.7,110.8,76.7,129.5z"/>
	<path class="st3" d="M76.7,129.5V438c0,8.8-7.2,16-16,16h-18V95.5C61.5,95.5,76.7,110.8,76.7,129.5z"/>
</g>
</svg>
