<?xml version="1.0" encoding="utf-8"?>
<!-- Generator: Adobe Illustrator 22.0.1, SVG Export Plug-In . SVG Version: 6.00 Build 0)  -->
<svg version="1.1" id="圖層_1" xmlns="http://www.w3.org/2000/svg" xmlns:xlink="http://www.w3.org/1999/xlink" x="0px" y="0px"
	 viewBox="0 0 120 120" style="enable-background:new 0 0 120 120;" xml:space="preserve">
<style type="text/css">
	.st0{fill:#087CBF;}
	.st1{fill:#FFFFFF;}
</style>
<g id="icon-water-level" transform="translate(-590 -262)">
	<circle id="椭圆_2" class="st0" cx="650" cy="322" r="60"/>
	<path id="路径_461" class="st1" d="M621.2,353.2L621.2,353.2c3.9,3.7,10,3.7,13.9,0l0,0c2.2-2.1,5.6-2.1,7.9,0l0,0
		c3.9,3.6,9.9,3.6,13.8,0l0.1,0c2-1.9,5-2.1,7.2-0.5v6.4h4.3v-4.3h6.2v-4.3h-6.2v-3.2h6.2v-4.3h-6.2v-4.5h6.2V334h-6.2v-4.5h6.2
		v-4.3h-6.2v-4.5h6.2v-4.3h-6.2v-4.5h6.2v-4.3h-6.2v-4.5h6.2v-4.3h-6.2v-4.5h10.8v65.2h4.3v-69.5h-19.4v32.3
		c-3.6-1.2-7.5-0.4-10.2,2.2l0,0c-2.2,2.1-5.6,2.1-7.9,0l0,0c-3.9-3.6-9.9-3.6-13.8,0l0,0c-2.2,2.1-5.6,2.1-7.9,0l0,0
		c-2.7-2.5-6.6-3.4-10.2-2.2v4.8c2.2-1.5,5.2-1.3,7.2,0.5l0,0c3.9,3.6,9.9,3.6,13.8,0l0,0c2.2-2.1,5.6-2.1,7.9,0l0,0
		c3.9,3.6,9.9,3.6,13.8,0l0,0c2-1.9,5-2.1,7.2-0.5v8.2c-3.6-1.2-7.5-0.4-10.2,2.2l0,0c-2.2,2.1-5.6,2.1-7.9,0l0,0
		c-3.9-3.6-9.9-3.6-13.8,0l0,0c-2.2,2.1-5.6,2.1-7.9,0l0,0c-2.7-2.5-6.6-3.4-10.2-2.2v4.8c2.2-1.5,5.2-1.3,7.2,0.5l0,0
		c3.9,3.6,9.9,3.6,13.8,0l0,0c2.2-2.1,5.6-2.1,7.9,0l0,0c3.9,3.6,9.9,3.6,13.8,0l0,0c2-1.9,5-2.1,7.2-0.5v8.2
		c-3.6-1.2-7.5-0.4-10.2,2.2l0,0c-2.2,2.1-5.6,2.1-7.9,0l0,0c-3.9-3.6-9.9-3.6-13.8,0l0,0c-2.2,2.1-5.6,2.1-7.9,0l0,0
		c-2.7-2.5-6.6-3.4-10.2-2.2v4.8C616.2,351.2,619.2,351.4,621.2,353.2z"/>
</g>
</svg>
