<svg xmlns="http://www.w3.org/2000/svg" xmlns:xlink="http://www.w3.org/1999/xlink" width="100" height="100" viewBox="0 0 100 100">
  <defs>
    <clipPath id="clip-path">
      <rect id="矩形_148" data-name="矩形 148" width="90" height="90" fill="#fff"/>
    </clipPath>
    <clipPath id="clip-path-2">
      <circle id="椭圆_37" data-name="椭圆 37" cx="41.837" cy="41.837" r="41.837" fill="#fff"/>
    </clipPath>
  </defs>
  <g id="组_366" data-name="组 366" transform="translate(-978 -368)">
    <rect id="矩形_148-2" data-name="矩形 148" width="100" height="100" transform="translate(978 368)" fill="none"/>
    <g id="组_361" data-name="组 361" transform="translate(388 5)">
      <g id="蒙版组_1" data-name="蒙版组 1" transform="translate(595 368)" clip-path="url(#clip-path)">
        <g id="wrisp" transform="translate(0 0)">
          <g id="组_362" data-name="组 362" transform="translate(0 0)">
            <path id="路径_403" data-name="路径 403" d="M53.032,99.277a45,45,0,1,1,45-45A45.051,45.051,0,0,1,53.032,99.277Zm0-83.675A38.675,38.675,0,1,0,91.707,54.277,38.719,38.719,0,0,0,53.032,15.6Z" transform="translate(-8.032 -9.277)" fill="#fff"/>
          </g>
          <g id="组_365" data-name="组 365" transform="translate(3.163 3.163)">
            <g id="组_364" data-name="组 364" clip-path="url(#clip-path-2)">
              <g id="组_363" data-name="组 363" transform="translate(-14.878 14.461)">
                <path id="路径_404" data-name="路径 404" d="M-4.985,94.429A37.39,37.39,0,0,1,4.43,91.345a72.525,72.525,0,0,1,18.979-.787c8.475.7,16.645,2.92,24.852,4.942a100.18,100.18,0,0,0,29.356,3c7.092-.372,14.091-1.331,20.74-4.031.7-.285,1.386-.619,2.076-.937.469-.216.731-.1.731.443q0,4.868-.011,9.736a.637.637,0,0,1-.7.709c-.38.008-.759.02-1.139.02q-51.425,0-102.851,0c-.482,0-.964-.04-1.446-.06Q-4.985,99.4-4.985,94.429Z" transform="translate(4.985 -35.001)" fill="#fff" fill-rule="evenodd"/>
                <path id="路径_405" data-name="路径 405" d="M-4.985,64.724c8.412-4.157,17.415-4.46,26.52-4.037,8.86.412,17.37,2.744,25.915,4.85A101.527,101.527,0,0,0,75.958,68.8c7.34-.3,14.6-1.129,21.533-3.76.839-.318,1.657-.69,2.476-1.056,1.117-.5,1.188-.46,1.2.8.007.794-.046,1.592.014,2.382A1.787,1.787,0,0,1,100.128,69a33.016,33.016,0,0,1-8.035,3.272A69.867,69.867,0,0,1,77.063,74.5c-10.808.586-21.326-1.146-31.743-3.834a133.539,133.539,0,0,0-19.688-3.93c-9.924-1.018-19.724-.586-29.267,2.645-.457.155-.9.35-1.35.527Q-4.985,67.315-4.985,64.724Z" transform="translate(4.985 -32.028)" fill="#fff" fill-rule="evenodd"/>
                <path id="路径_406" data-name="路径 406" d="M-4.985,79.681A34.18,34.18,0,0,1,7.962,75.925c10.955-1.317,21.693.026,32.319,2.722A180.523,180.523,0,0,0,59.505,82.8a93.058,93.058,0,0,0,20.552.651A67.071,67.071,0,0,0,96,80.471a34.1,34.1,0,0,0,4.219-1.711c.667-.327.97-.166.952.588A8.27,8.27,0,0,0,101.186,81c.33,1.809-.552,2.748-2.1,3.508a46.32,46.32,0,0,1-14.057,4.112,90.364,90.364,0,0,1-32.113-1.3C46.306,85.9,39.8,84.007,33.144,82.76,22.27,80.721,11.4,80.383.57,83.021c-1.873.457-3.7,1.084-5.555,1.633Q-4.985,82.167-4.985,79.681Z" transform="translate(4.985 -33.515)" fill="#fff" fill-rule="evenodd"/>
                <path id="路径_407" data-name="路径 407" d="M-4.985,76.5c2.269-.712,4.452-1.683,6.777-2.233a67.917,67.917,0,0,1,18.3-1.623c8.631.325,16.943,2.364,25.236,4.487a107.421,107.421,0,0,0,32.6,3.639,65.251,65.251,0,0,0,19.662-3.726c.871-.328,1.711-.738,2.575-1.089.294-.12.671-.418.9.031a.755.755,0,0,1-.374,1.053,23.877,23.877,0,0,1-3.368,1.592,62.244,62.244,0,0,1-16.771,3.509c-12.31,1.124-24.3-.682-36.171-3.784A120.911,120.911,0,0,0,25.3,74.579c-9.21-.875-18.35-.762-27.232,2.291-1.042.358-2.036.853-3.053,1.285Q-4.985,77.325-4.985,76.5Z" transform="translate(4.985 -33.231)" fill="#fff" fill-rule="evenodd"/>
                <path id="路径_408" data-name="路径 408" d="M-4.985,91.453A48.994,48.994,0,0,1,7.366,88.075a76.818,76.818,0,0,1,25.036.936C39.761,90.435,46.951,92.6,54.315,94a92.5,92.5,0,0,0,35.61.128,45.518,45.518,0,0,0,10.049-3.191c.334-.152.826-.7,1.129-.037.262.575-.172.948-.676,1.213a36.921,36.921,0,0,1-8.544,3.113,85.6,85.6,0,0,1-25.106,1.922c-9.024-.5-17.721-2.748-26.434-4.911a94.163,94.163,0,0,0-25.612-3.211A54.1,54.1,0,0,0-1.374,91.55a27.97,27.97,0,0,0-3.611,1.56Q-4.985,92.281-4.985,91.453Z" transform="translate(4.985 -34.718)" fill="#fff" fill-rule="evenodd"/>
                <path id="路径_409" data-name="路径 409" d="M-4.985,61.744C1.1,59.018,7.534,58.01,14.142,57.736c8.5-.354,16.778.985,24.992,2.976,6.3,1.528,12.576,3.2,19,4.183a95.7,95.7,0,0,0,24.251.619A58.67,58.67,0,0,0,98.57,61.771c.575-.233,1.132-.512,1.706-.75.271-.113.611-.338.8.077a.717.717,0,0,1-.228.929,7.182,7.182,0,0,1-.982.572,48.892,48.892,0,0,1-14.9,4.151C71.984,68.583,59.229,67.238,46.6,64a149.462,149.462,0,0,0-19.848-4.155,71.464,71.464,0,0,0-25.411,1.1,47.253,47.253,0,0,0-6.328,2.255Q-4.985,62.469-4.985,61.744Z" transform="translate(4.985 -31.741)" fill="#fff" fill-rule="evenodd"/>
                <path id="路径_410" data-name="路径 410" d="M64.492,42.378a15.255,15.255,0,0,0-2.479-5.343c-1.7-2.579-3.565-5.058-4.61-8.011a1.084,1.084,0,0,0-.1-.166A1.076,1.076,0,0,0,57,29.4a21.381,21.381,0,0,1-1.266,2.707c-1.076,1.912-2.391,3.67-3.557,5.523a12.089,12.089,0,0,0-2.3,7.43,7.416,7.416,0,0,0,11.4,5.908C64.192,49.124,65.213,46.007,64.492,42.378ZM52.514,44.413a6.311,6.311,0,0,0,2.614,4.1,1.95,1.95,0,0,1-1.91-.665A3.555,3.555,0,0,1,52.514,44.413Z" transform="translate(-0.498 -28.859)" fill="#fff"/>
              </g>
            </g>
          </g>
        </g>
      </g>
    </g>
  </g>
</svg>
