<svg xmlns="http://www.w3.org/2000/svg" width="30" height="28.125" viewBox="0 0 30 28.125">
  <g id="icon-tides" transform="translate(0 -16)">
    <path id="路径_485" data-name="路径 485" d="M29.121,317.758c-.494,0-.706-.191-1.136-.621a3.059,3.059,0,0,0-4.758,0c-.431.431-.642.621-1.136.621s-.706-.191-1.136-.621A3.272,3.272,0,0,0,18.516,316a3.133,3.133,0,0,0-2.379,1.136c-.431.431-.642.621-1.136.621s-.706-.191-1.136-.621A3.133,3.133,0,0,0,11.484,316a3.272,3.272,0,0,0-2.438,1.136c-.431.431-.642.621-1.136.621s-.706-.191-1.136-.621A3.133,3.133,0,0,0,4.395,316a3.133,3.133,0,0,0-2.379,1.136c-.431.431-.642.621-1.136.621a.878.878,0,0,0-.879.879V322a1.624,1.624,0,0,0,2.015-.469,3.133,3.133,0,0,1,2.379-1.136,3.133,3.133,0,0,1,2.379,1.136c.431.431.642.621,1.136.621s.706-.191,1.136-.621a3.272,3.272,0,0,1,2.438-1.136,3.133,3.133,0,0,1,2.379,1.136c.431.431.642.621,1.136.621s.706-.191,1.136-.621a3.133,3.133,0,0,1,2.379-1.136,3.272,3.272,0,0,1,2.438,1.136c.431.431.642.621,1.136.621s.706-.191,1.136-.621a3.059,3.059,0,0,1,4.758,0A1.623,1.623,0,0,0,30,322v-3.364A.878.878,0,0,0,29.121,317.758Z" transform="translate(0 -282.422)" fill="#fff"/>
    <path id="路径_486" data-name="路径 486" d="M26.742,421.621c-.431-.431-.642-.621-1.136-.621s-.706.191-1.136.621a3.133,3.133,0,0,1-2.379,1.136,3.272,3.272,0,0,1-2.438-1.136c-.431-.431-.642-.621-1.136-.621s-.706.191-1.136.621a3.059,3.059,0,0,1-4.758,0c-.431-.431-.642-.621-1.136-.621a1.538,1.538,0,0,0-1.2.621,3.059,3.059,0,0,1-4.758,0C5.1,421.191,4.889,421,4.395,421s-.706.191-1.136.621A3.163,3.163,0,0,1,0,422.651v1.865a.878.878,0,0,0,.879.879H29.121a.878.878,0,0,0,.879-.879V422.65A3.166,3.166,0,0,1,26.742,421.621Z" transform="translate(0 -381.27)" fill="#fff"/>
    <path id="路径_487" data-name="路径 487" d="M1.5,169.259,1.759,169v3.152a.879.879,0,1,0,1.758,0V169l.258.258a.879.879,0,1,0,1.243-1.243l-1.758-1.758a.879.879,0,0,0-1.243,0L.258,168.016A.879.879,0,1,0,1.5,169.259Z" transform="translate(-0.001 -141.212)" fill="#fff"/>
    <path id="路径_488" data-name="路径 488" d="M425.773,169.773l-.258.257v-3.152a.879.879,0,0,0-1.758,0v3.152l-.258-.258a.879.879,0,1,0-1.243,1.243l1.758,1.758a.878.878,0,0,0,1.243,0l1.758-1.758a.879.879,0,1,0-1.243-1.243Z" transform="translate(-397.273 -141.211)" fill="#fff"/>
    <path id="路径_489" data-name="路径 489" d="M130.813,18.137a.879.879,0,0,0-.073-1.608,7.679,7.679,0,0,0-2.771-.53,7.91,7.91,0,1,0,7.867,8.965.879.879,0,0,0-1.382-.833,3.662,3.662,0,0,1-2.09.657,3.5,3.5,0,0,1-1.55-6.652Z" transform="translate(-112.969)" fill="#fff"/>
  </g>
</svg>
