<?xml version="1.0" encoding="utf-8"?>
<!-- Generator: Adobe Illustrator 22.0.1, SVG Export Plug-In . SVG Version: 6.00 Build 0)  -->
<svg version="1.1" id="Capa_1" xmlns="http://www.w3.org/2000/svg" xmlns:xlink="http://www.w3.org/1999/xlink" x="0px" y="0px"
	 viewBox="0 0 512 512" style="enable-background:new 0 0 512 512;" xml:space="preserve">
<style type="text/css">
	.st0{fill:#B7A28A;}
	.st1{fill:#968371;}
	.st2{fill:#F9ECD7;}
	.st3{fill:#F5D7B0;}
</style>
<g>
	<g>
		<path class="st0" d="M330.4,126H87.3v-25.8h243.2c10.6,0,19.2-8.6,19.2-19.2s-8.7-19.2-19.3-19.2c-10.6,0-19.2,8.6-19.2,19.2
			h-25.8c0-24.8,20.2-45,45-45c24.8,0,45,20.2,45,45S355.2,126,330.4,126z"/>
		<path class="st0" d="M430.9,192.5H187.8v-25.8H431c10.6,0,19.2-8.6,19.2-19.2c0-10.7-8.6-19.2-19.2-19.2
			c-10.6,0-19.2,8.6-19.2,19.2H386c0-24.8,20.2-45,45-45s45,20.2,45,45S455.7,192.5,430.9,192.5z"/>
		<path class="st0" d="M368.5,320.9c-24.8,0-45-20.2-45-45h25.8c0,10.6,8.6,19.2,19.2,19.2c10.6,0,19.2-8.6,19.2-19.2
			c0-10.6-8.6-19.2-19.2-19.2H125.4v-25.8h243.1c24.8,0,45,20.2,45,45S393.4,320.9,368.5,320.9z"/>
	</g>
	<path class="st1" d="M375.4,81.1c0-24.8-20.2-45-45-45c-24.8,0-45,20.2-45,45h25.8c0-10.6,8.6-19.2,19.2-19.2
		c10.7,0,19.2,8.6,19.2,19.2s-8.6,19.2-19.2,19.2H256v25.8h74.4C355.2,126,375.4,105.8,375.4,81.1z"/>
	<path class="st1" d="M430.9,102.6c-24.8,0-45,20.2-45,45h25.8c0-10.6,8.6-19.2,19.2-19.2c10.6,0,19.2,8.6,19.2,19.2
		s-8.6,19.2-19.2,19.2H256v25.8h174.9c24.8,0,45-20.2,45-45S455.7,102.6,430.9,102.6z"/>
	<path class="st1" d="M368.5,256.7c10.6,0,19.2,8.6,19.2,19.2c0,10.6-8.6,19.2-19.2,19.2c-10.6,0-19.2-8.6-19.2-19.2h-25.8
		c0,24.8,20.2,45,45,45s45-20.2,45-45s-20.2-45-45-45H256v25.8H368.5z"/>
	<g>
		<path class="st2" d="M475.9,475.9H36.1V303.2h104.1c21.2,0,42,4.1,61.6,12.3c19.7,8.2,37.2,19.8,52.2,34.9
			c25.6,25.5,59.5,39.6,95.6,39.6h126.3V475.9z"/>
	</g>
	<path class="st3" d="M475.9,390H349.6c-35.2,0-68.4-13.4-93.6-37.7v123.6h219.9V390z"/>
	<path class="st3" d="M36.1,390h86.5v25.8H36.1V390z"/>
	<path class="st3" d="M148.5,390h26v25.8h-26V390z"/>
	<path class="st0" d="M73.2,230.9h26v25.8h-26V230.9z"/>
	<path class="st0" d="M135.7,166.7h26v25.8h-26V166.7z"/>
	<path class="st0" d="M36.2,100.3h26V126h-26V100.3z"/>
</g>
</svg>
