<?xml version="1.0" encoding="utf-8"?>
<!-- Generator: Adobe Illustrator 22.0.1, SVG Export Plug-In . SVG Version: 6.00 Build 0)  -->
<svg version="1.1" id="Capa_1" xmlns="http://www.w3.org/2000/svg" xmlns:xlink="http://www.w3.org/1999/xlink" x="0px" y="0px"
	 viewBox="0 0 512 512" style="enable-background:new 0 0 512 512;" xml:space="preserve">
<style type="text/css">
	.st0{fill:#FF9100;}
	.st1{fill:#FF6426;}
	.st2{fill:#09607D;}
	.st3{fill:#07485E;}
	.st4{fill:#04303E;}
	.st5{fill:#5ECEF4;}
	.st6{fill:#9BFBFF;}
	.st7{fill:#FFF5F5;}
	.st8{fill:#DFDEF5;}
	.st9{fill:#69A8F4;}
</style>
<g>
	<path class="st0" d="M454.6,292.4h-99.3c-6.9,0-12.4-5.6-12.4-12.4v-91c0-6.9,5.6-12.4,12.4-12.4h99.3c6.9,0,12.4,5.6,12.4,12.4
		v70.3C467,266.2,461.4,292.4,454.6,292.4z"/>
	<g>
		<path class="st1" d="M454.6,176.6h-43.4v115.9h43.4c6.9,0,12.4-26.3,12.4-33.1V189C467,182.1,461.4,176.6,454.6,176.6L454.6,176.6
			z"/>
	</g>
	<path class="st2" d="M125.7,93.8c-6.9,0-12.4-5.6-12.4-12.4V56.6c0-6.9,5.6-12.4,12.4-12.4s12.4,5.6,12.4,12.4v24.8
		C138.1,88.3,132.5,93.8,125.7,93.8z"/>
	<path class="st3" d="M138.1,81.4V56.6c0-6.9-5.6-12.4-12.4-12.4v49.6C132.5,93.8,138.1,88.3,138.1,81.4z"/>
	<path class="st3" d="M158.8,143.5H92.6c-6.9,0-12.4-5.6-12.4-12.4V81.4c0-6.9,5.6-12.4,12.4-12.4h66.2c6.9,0,12.4,5.6,12.4,12.4
		v49.6C171.2,137.9,165.6,143.5,158.8,143.5z"/>
	<path class="st4" d="M158.8,69h-33.1v74.5h33.1c6.9,0,12.4-5.6,12.4-12.4V81.4C171.2,74.6,165.6,69,158.8,69z"/>
	<path class="st2" d="M206.4,285.9c-0.1,0-0.1,0-0.1,0l-148.9-1.8c-6.8-0.1-12.3-18-12.3-24.8V131.1c0-6.9,5.6-12.4,12.4-12.4h148.9
		c6.9,0,12.4,5.6,12.4,12.4v142.5c0,3.3-1.3,6.5-3.7,8.8C212.8,284.6,209.6,285.9,206.4,285.9L206.4,285.9z"/>
	<path class="st3" d="M206.4,118.6h-80.7V285l80.5,1c0.1,0,0.1,0,0.1,0c3.3,0,6.4-1.3,8.7-3.6c2.4-2.3,3.7-5.5,3.7-8.8V131.1
		C218.8,124.2,213.2,118.6,206.4,118.6L206.4,118.6z"/>
	<circle class="st5" cx="150.5" cy="168.3" r="12.4"/>
	<circle class="st6" cx="100.9" cy="168.3" r="12.4"/>
	<circle class="st5" cx="150.5" cy="217.9" r="12.4"/>
	<circle class="st6" cx="100.9" cy="217.9" r="12.4"/>
	<path class="st7" d="M361.5,329.6H200.1V86.9c0-5.8,4-10.9,9.7-12.1l136.5-30.3c7.8-1.7,15.1,4.2,15.1,12.1V329.6z"/>
	<circle class="st6" cx="411.1" cy="226.2" r="12.4"/>
	<path class="st5" d="M411.1,213.8v24.8c6.9,0,12.4-5.6,12.4-12.4S418,213.8,411.1,213.8z"/>
	<g>
		<path class="st6" d="M305.6,135.7H256c-6.9,0-12.4-5.6-12.4-12.4c0-6.9,5.6-12.4,12.4-12.4h49.6c6.9,0,12.4,5.6,12.4,12.4
			C318.1,130.2,312.5,135.7,305.6,135.7z"/>
		<path class="st6" d="M305.6,185.4H256c-6.9,0-12.4-5.6-12.4-12.4c0-6.9,5.6-12.4,12.4-12.4h49.6c6.9,0,12.4,5.6,12.4,12.4
			C318.1,179.8,312.5,185.4,305.6,185.4z"/>
		<path class="st6" d="M305.6,235H256c-6.9,0-12.4-5.6-12.4-12.4s5.6-12.4,12.4-12.4h49.6c6.9,0,12.4,5.6,12.4,12.4
			S312.5,235,305.6,235z"/>
	</g>
	<g>
		<g>
			<path class="st8" d="M361.5,56.6c0-7.9-7.4-13.8-15.1-12.1L280.8,59v270.6h80.7V56.6z"/>
		</g>
		<g>
			<path class="st5" d="M318.1,123.3c0-6.9-5.6-12.4-12.4-12.4h-24.8v24.8h24.8C312.5,135.7,318.1,130.2,318.1,123.3z"/>
			<path class="st5" d="M318.1,173c0-6.9-5.6-12.4-12.4-12.4h-24.8v24.8h24.8C312.5,185.4,318.1,179.8,318.1,173z"/>
			<path class="st5" d="M305.6,235c6.9,0,12.4-5.6,12.4-12.4s-5.6-12.4-12.4-12.4h-24.8V235H305.6z"/>
		</g>
	</g>
	<g>
		<path class="st6" d="M454.6,259.3c-19.5,0-29.7,5.1-38.7,9.6c-7.8,3.9-13.9,7-27.6,7s-19.8-3.1-27.6-7c-9-4.5-19.2-9.6-38.7-9.6
			c-19.5,0-29.7,5.1-38.6,9.6c-7.8,3.9-13.9,7-27.5,7c-13.6,0-19.8-3.1-27.6-7c-9-4.5-19.2-9.6-38.7-9.6c-19.5,0-29.7,5.1-38.6,9.6
			c-7.8,3.9-13.9,7-27.5,7c-13.6,0-19.8-3.1-27.5-7c-9-4.5-19.2-9.6-38.6-9.6H45v63l12.4,32.2h397.2l12.4-32.2v-63H454.6z"/>
		<g>
			<path class="st5" d="M280.8,354.5h173.8l12.4-32.2v-63h-12.4c-19.5,0-29.7,5.1-38.7,9.6c-7.8,3.9-13.9,7-27.6,7s-19.8-3.1-27.6-7
				c-9-4.5-19.2-9.6-38.7-9.6c-19.5,0-29.7,5.1-38.6,9.6c-0.9,0.5-1.8,0.9-2.7,1.3L280.8,354.5z"/>
		</g>
		<path class="st5" d="M454.6,321.4c-33.1,0-33.1,16.5-66.2,16.5s-33.1-16.5-66.2-16.5c-33.1,0-33.1,16.5-66.2,16.5
			c-33.1,0-33.1-16.5-66.2-16.5c-33.1,0-33.1,16.5-66.2,16.5c-33.1,0-33.1-16.5-66.2-16.5c-4.8,0-8.8,0.3-12.4,0.9v133.1
			c0,6.9,5.6,12.4,12.4,12.4h397.2c6.9,0,12.4-5.6,12.4-12.4V322.3C463.4,321.7,459.3,321.4,454.6,321.4L454.6,321.4z"/>
		<path class="st9" d="M280.8,467.8h173.8c6.9,0,12.4-5.6,12.4-12.4V322.3c-3.6-0.6-7.7-0.9-12.4-0.9c-33.1,0-33.1,16.5-66.2,16.5
			s-33.1-16.5-66.2-16.5c-21.8,0-29.3,7.2-41.3,12.1L280.8,467.8L280.8,467.8z"/>
	</g>
</g>
</svg>
