<svg xmlns="http://www.w3.org/2000/svg" width="30" height="21.094" viewBox="0 0 30 21.094">
  <g id="icon-water" transform="translate(0 -76)">
    <g id="组_587" data-name="组 587" transform="translate(0 76)">
      <g id="组_586" data-name="组 586" transform="translate(0 0)">
        <path id="路径_473" data-name="路径 473" d="M.409,190.421c1.775,1.522,3.786,3.248,7.677,3.248s5.9-1.725,7.677-3.248c1.678-1.44,3.128-2.683,6.151-2.683s4.473,1.243,6.151,2.683a1.172,1.172,0,1,0,1.526-1.779c-1.775-1.522-3.786-3.248-7.677-3.248s-5.9,1.725-7.677,3.248c-1.678,1.44-3.128,2.683-6.151,2.683s-4.473-1.243-6.151-2.683a1.172,1.172,0,1,0-1.526,1.779Z" transform="translate(0 -178.984)" fill="#fff"/>
        <path id="路径_474" data-name="路径 474" d="M.409,81.027c1.775,1.522,3.786,3.248,7.677,3.248s5.9-1.725,7.677-3.248c1.678-1.44,3.128-2.683,6.151-2.683s4.473,1.243,6.151,2.683a1.172,1.172,0,1,0,1.526-1.779C27.816,77.725,25.8,76,21.914,76s-5.9,1.725-7.677,3.248c-1.678,1.44-3.128,2.683-6.151,2.683s-4.473-1.243-6.151-2.683A1.172,1.172,0,1,0,.409,81.027Z" transform="translate(0 -76)" fill="#fff"/>
        <path id="路径_475" data-name="路径 475" d="M29.592,298.035c-1.775-1.522-3.786-3.248-7.677-3.248s-5.9,1.725-7.677,3.248c-1.678,1.44-3.128,2.683-6.151,2.683s-4.473-1.243-6.151-2.683h0A1.172,1.172,0,0,0,.41,299.814c1.775,1.522,3.786,3.248,7.677,3.248s5.9-1.725,7.677-3.248c1.678-1.44,3.128-2.683,6.151-2.683s4.473,1.243,6.151,2.683a1.172,1.172,0,1,0,1.526-1.779Z" transform="translate(-0.001 -281.967)" fill="#fff"/>
      </g>
    </g>
  </g>
</svg>
