<svg xmlns="http://www.w3.org/2000/svg" width="28.676" height="32.171" viewBox="0 0 28.676 32.171">
  <g id="icon-disaster" transform="translate(-734.966 -65.461)">
    <path id="路径_500" data-name="路径 500" d="M749.782,87.477a1.159,1.159,0,0,1-.552-.563l-2.9-6.355a5.062,5.062,0,0,1-.612-.819l-5.528-3.11a1.159,1.159,0,0,1-.531-.643l-2.27-6.809-2.424-3.716V97.632h28.676l-1.654-4.961Z" fill="#fff"/>
    <circle id="椭圆_43" data-name="椭圆 43" cx="2.709" cy="2.709" r="2.709" transform="matrix(0.754, -0.656, 0.656, 0.754, 755.322, 84.573)" fill="#fff"/>
    <path id="路径_501" data-name="路径 501" d="M898.305,181.183a3.34,3.34,0,1,0-3.34-3.34A3.344,3.344,0,0,0,898.305,181.183Z" transform="translate(-147.642 -100.619)" fill="#fff"/>
    <path id="路径_503" data-name="路径 503" d="M821.837,80.569a1.158,1.158,0,1,0,2.006-1.159l-1.931-3.344a1.158,1.158,0,0,0-2.006,1.158Z" transform="translate(-78.236 -9.252)" fill="#fff"/>
    <path id="路径_504" data-name="路径 504" d="M887.254,76.819a1.158,1.158,0,0,0,2.007-1.158l-1.931-3.344a1.158,1.158,0,0,0-2.007,1.159Z" transform="translate(-138.601 -5.791)" fill="#fff"/>
  </g>
</svg>
