<?xml version="1.0" encoding="utf-8"?>
<!-- Generator: Adobe Illustrator 22.0.1, SVG Export Plug-In . SVG Version: 6.00 Build 0)  -->
<svg version="1.1" id="Capa_1" xmlns="http://www.w3.org/2000/svg" xmlns:xlink="http://www.w3.org/1999/xlink" x="0px" y="0px"
	 viewBox="0 0 512 512" style="enable-background:new 0 0 512 512;" xml:space="preserve">
<style type="text/css">
	.st0{fill:#1DE8F1;}
	.st1{fill:#1BD9DE;}
	.st2{fill:#8B4330;}
	.st3{fill:#B25C4A;}
	.st4{fill:#32D736;}
	.st5{fill:#10BB67;}
	.st6{fill:#763220;}
	.st7{fill:#15B7BE;}
</style>
<path class="st0" d="M465.3,457.6c-1.5,4.9-6.2,8.4-11.6,8.4H58.3c-4.4,0-8.6-2.5-10.8-6.4c-2.2-3.9-2-8.6,0.5-12.5l114.3-182.7
	c7.6-12.1,19.2-21.2,32.7-25.6l38.1-12.8l-10.8-11.1c-8.6-8.4-12.3-19.9-10.3-32c2-11.8,9.1-21.7,19.9-27.1l18.7-9.4h47.7
	c6.2,3.2,8.6,10.6,5.7,16.5l-4.4,8.9c-2.5,4.7-1.5,10.3,2.2,14.3l37.2,37.2c8.6,8.4,12.3,19.9,10.3,32c-2,11.8-9.1,21.7-19.9,27.1
	l-32.2,16c-5.4,3-6.6,7.9-6.6,10.1c-0.2,2-0.2,7.1,4.7,10.8l165.9,124.6C465.3,447.1,467,452.5,465.3,457.6z"/>
<g>
	<path class="st1" d="M465.3,457.6c-1.5,4.9-6.2,8.4-11.6,8.4H256V146.5h42.3c6.2,3.2,8.6,10.6,5.7,16.5l-4.4,8.9
		c-2.5,4.7-1.5,10.3,2.2,14.3l37.2,37.2c8.6,8.4,12.3,19.9,10.3,32c-2,11.8-9.1,21.7-19.9,27.1l-32.2,16c-5.4,3-6.6,7.9-6.6,10.1
		c-0.2,2-0.2,7.1,4.7,10.8l165.9,124.6C465.3,447.1,467,452.5,465.3,457.6z"/>
	<path class="st1" d="M182.2,416h-24.6c-6.8,0-12.3-5.5-12.3-12.3s5.5-12.3,12.3-12.3h24.6c6.8,0,12.3,5.5,12.3,12.3
		S189,416,182.2,416z"/>
	<path class="st1" d="M231.4,317.5h-24.6c-6.8,0-12.3-5.5-12.3-12.3c0-6.8,5.5-12.3,12.3-12.3h24.6c6.8,0,12.3,5.5,12.3,12.3
		C243.7,312,238.2,317.5,231.4,317.5z"/>
	<path class="st1" d="M231.4,366.8h-49.2c-6.8,0-12.3-5.5-12.3-12.3s5.5-12.3,12.3-12.3h49.2c6.8,0,12.3,5.5,12.3,12.3
		C243.7,361.3,238.2,366.8,231.4,366.8z"/>
</g>
<path class="st2" d="M331.8,127.6l-26.6,42.3H58.3c-5.4,0-10.1-3.4-11.8-8.6c-1.5-5.4,0.5-10.8,4.9-14L199.9,48
	c4.2-2.7,9.6-2.7,13.8,0L256,76.3L331.8,127.6z"/>
<g>
	<path class="st3" d="M416.8,329.8v24.6c0,6.9-5.4,12.3-12.3,12.3c-6.9,0-12.3-5.4-12.3-12.3v-24.6c0-6.9,5.4-12.3,12.3-12.3
		C411.4,317.5,416.8,323,416.8,329.8z"/>
</g>
<path class="st2" d="M416.8,329.8v24.6c0,6.9-5.4,12.3-12.3,12.3v-49.2C411.4,317.5,416.8,323,416.8,329.8z"/>
<path class="st4" d="M404.5,243.7c-25.3,0-36.9,47.2-36.9,61.5c0,20.4,16.5,36.9,36.9,36.9s36.9-16.5,36.9-36.9
	C441.4,291,429.8,243.7,404.5,243.7z"/>
<path class="st5" d="M441.4,305.2c0,20.4-16.5,36.9-36.9,36.9v-98.4C429.8,243.7,441.4,291,441.4,305.2z"/>
<path class="st3" d="M95.3,280.6v24.6c0,6.9-5.4,12.3-12.3,12.3c-6.9,0-12.3-5.4-12.3-12.3v-24.6c0-6.9,5.4-12.3,12.3-12.3
	C89.8,268.3,95.3,273.7,95.3,280.6z"/>
<path class="st2" d="M95.3,280.6v24.6c0,6.9-5.4,12.3-12.3,12.3v-49.2C89.8,268.3,95.3,273.7,95.3,280.6z"/>
<path class="st4" d="M83,194.5C57.6,194.5,46,241.8,46,256c0,20.4,16.5,36.9,36.9,36.9s36.9-16.5,36.9-36.9
	C119.9,241.8,108.3,194.5,83,194.5z"/>
<path class="st5" d="M119.9,256c0,20.4-16.5,36.9-36.9,36.9v-98.4C108.3,194.5,119.9,241.8,119.9,256z"/>
<polygon class="st6" points="331.8,127.6 305.2,169.9 256,169.9 256,76.3 "/>
<path class="st1" d="M317.5,403.7c0,6.9-5.4,12.3-12.3,12.3H256c-6.9,0-12.3-5.4-12.3-12.3c0-6.9,5.4-12.3,12.3-12.3h49.2
	C312.1,391.4,317.5,396.8,317.5,403.7z"/>
<path class="st7" d="M317.5,403.7c0,6.9-5.4,12.3-12.3,12.3H256v-24.6h49.2C312.1,391.4,317.5,396.8,317.5,403.7z"/>
<path class="st3" d="M453.7,169.9c4.9,0,9.4-3,11.3-7.6c2-4.7,1-9.8-2.7-13.3l-73.8-73.8c-4.7-4.9-12.5-4.9-17.2,0l-95.6,94.7H453.7
	z"/>
</svg>
