<svg xmlns="http://www.w3.org/2000/svg" width="150" height="150" viewBox="0 0 150 150">
  <g id="iocn-flooddepth" transform="translate(-943 -1491)">
    <g id="椭圆_39" data-name="椭圆 39" transform="translate(943 1491)" fill="#2faae5" stroke="#2faae5" stroke-width="1">
      <circle cx="75" cy="75" r="75" stroke="none"/>
      <circle cx="75" cy="75" r="74.5" fill="none"/>
    </g>
    <g id="组_480" data-name="组 480" transform="translate(982.907 1531.259)">
      <text id="淹水深度" transform="translate(-7.907 21)" fill="#fff" font-size="22" font-family="NotoSansCJKtc-Bold, Noto Sans CJK TC" font-weight="700"><tspan x="0" y="0">淹水深度</tspan></text>
      <path id="减去_1" data-name="减去 1" d="M43.251,35.874a13.135,13.135,0,0,1-8.329-2.821l-.055-.046a7.779,7.779,0,0,0-9.456,0l-.057.047a13.123,13.123,0,0,1-8.327,2.82A13.124,13.124,0,0,1,8.7,33.053l-.056-.046a7.448,7.448,0,0,0-4.726-1.6A7.675,7.675,0,0,0,0,32.441V27.482a14.139,14.139,0,0,1,3.919-.546,13.118,13.118,0,0,1,8.324,2.819l.056.048a7.455,7.455,0,0,0,4.728,1.6,7.453,7.453,0,0,0,4.727-1.6l.057-.048a13.124,13.124,0,0,1,8.327-2.82,13.124,13.124,0,0,1,8.327,2.82l.056.046a7.781,7.781,0,0,0,9.456,0l.053-.045a13.125,13.125,0,0,1,8.329-2.821A14.255,14.255,0,0,1,60,27.4v4.879a7.771,7.771,0,0,0-3.64-.879,7.444,7.444,0,0,0-4.726,1.6l-.06.049A13.112,13.112,0,0,1,43.251,35.874Zm0-13.468a13.127,13.127,0,0,1-8.329-2.821l-.055-.045a7.778,7.778,0,0,0-9.456,0l-.057.045a13.123,13.123,0,0,1-8.327,2.821A13.12,13.12,0,0,1,8.7,19.585l-.056-.045a7.444,7.444,0,0,0-4.725-1.6A7.68,7.68,0,0,0,0,18.974v-4.96a14.2,14.2,0,0,1,3.918-.545,13.122,13.122,0,0,1,8.326,2.82l.055.045a7.454,7.454,0,0,0,4.728,1.6,7.451,7.451,0,0,0,4.727-1.6l.057-.047a13.122,13.122,0,0,1,8.327-2.82,13.122,13.122,0,0,1,8.328,2.821l.056.045a7.781,7.781,0,0,0,9.456,0l.055-.045a13.127,13.127,0,0,1,8.329-2.821A14.213,14.213,0,0,1,60,13.937v4.88a7.771,7.771,0,0,0-3.639-.88,7.448,7.448,0,0,0-4.727,1.6l-.06.048A13.112,13.112,0,0,1,43.251,22.406Zm0-13.467a13.124,13.124,0,0,1-8.328-2.821l-.056-.046a7.781,7.781,0,0,0-9.456,0l-.057.046a13.12,13.12,0,0,1-8.327,2.821A13.124,13.124,0,0,1,8.7,6.118l-.056-.046a7.447,7.447,0,0,0-4.726-1.6A7.682,7.682,0,0,0,0,5.506V.546A14.188,14.188,0,0,1,3.917,0a13.122,13.122,0,0,1,8.328,2.821l.055.046a7.452,7.452,0,0,0,4.728,1.6,7.449,7.449,0,0,0,4.727-1.6l.057-.048A13.126,13.126,0,0,1,30.138,0a13.122,13.122,0,0,1,8.328,2.821l.056.046a7.453,7.453,0,0,0,4.728,1.6,7.448,7.448,0,0,0,4.727-1.6l.055-.044A13.124,13.124,0,0,1,56.361,0,14.244,14.244,0,0,1,60,.469V5.348a7.773,7.773,0,0,0-3.638-.878,7.451,7.451,0,0,0-4.728,1.6l-.06.048A13.11,13.11,0,0,1,43.251,8.939Z" transform="translate(6.093 41.356)" fill="#fff" stroke="rgba(0,0,0,0)" stroke-miterlimit="10" stroke-width="1"/>
    </g>
  </g>
</svg>
