<?xml version="1.0" encoding="utf-8"?>
<!-- Generator: Adobe Illustrator 22.0.1, SVG Export Plug-In . SVG Version: 6.00 Build 0)  -->
<svg version="1.1" id="圖層_1" xmlns="http://www.w3.org/2000/svg" xmlns:xlink="http://www.w3.org/1999/xlink" x="0px" y="0px"
	 viewBox="0 0 150 150" style="enable-background:new 0 0 150 150;" xml:space="preserve">
<style type="text/css">
	.st0{fill:#087CBF;}
	.st1{fill:none;stroke:#2FAAE5;}
	.st2{fill:#FFFFFF;}
	.st3{font-family:'NotoSansCJKtc-Bold-B5pc-H';}
	.st4{font-size:22px;}
</style>
<g id="iocn-flooddepth" transform="translate(-925 -1598)">
	<g id="组_500">
		<g id="椭圆_39" transform="translate(925 1598)">
			<circle class="st0" cx="75" cy="75" r="75"/>
			<circle class="st1" cx="75" cy="75" r="74.5"/>
		</g>
		<text transform="matrix(1 0 0 1 956 1719.259)" class="st2 st3 st4">淹水深度</text>
	</g>
	<g id="组_494" transform="translate(968 1622)">
		<path id="路径_59" class="st2" d="M38.4,37h9.1c0.9,0,1.7-0.8,1.7-1.7v-9.1c0-0.9-0.8-1.7-1.7-1.7l0,0h-9.1
			c-0.9,0-1.7,0.8-1.7,1.7v9.1C36.7,36.3,37.5,37,38.4,37z M40.1,27.9h5.7v5.7h-5.7V27.9z"/>
		<path id="路径_60" class="st2" d="M1.9,46.7c1,0,2,0.3,2.8,1c2.9,2.2,6.9,2.2,9.8,0c1.6-1.3,3.9-1.3,5.5,0
			c2.9,2.2,6.9,2.2,9.8,0c1.6-1.3,3.9-1.3,5.5,0c2.9,2.2,6.9,2.2,9.8,0c1.6-1.3,3.9-1.3,5.5,0c2.9,2.2,6.9,2.2,9.8,0
			c0.8-0.7,1.8-1,2.8-1c1.1,0,2-1,1.9-2.1c0-1-0.9-1.9-1.9-1.9c-1.8,0-3.5,0.6-4.9,1.7c-0.3,0.2-0.6,0.4-0.9,0.5V24.6l2,1.6
			c0.8,0.6,2,0.5,2.6-0.3c0,0,0-0.1,0.1-0.1c0.6-0.9,0.5-2.1-0.3-2.8l-28-22.7c-0.7-0.6-1.7-0.6-2.3,0L3.5,23
			c-0.8,0.7-1,1.9-0.3,2.8c0.6,0.8,1.8,1,2.6,0.4c0,0,0.1,0,0.1-0.1l2-1.6v20.3c-0.3-0.2-0.6-0.3-0.9-0.5c-1.4-1.1-3.1-1.7-4.9-1.7
			c-1.1,0-2,1-1.9,2.1C0,45.8,0.9,46.6,1.9,46.7L1.9,46.7z M28,44.1c-0.1,0.1-0.3,0.2-0.4,0.3c-1.6,1.3-3.9,1.3-5.5,0
			c-0.9-0.7-1.9-1.2-3-1.5V28.8H28V44.1z M32.5,4.5l21,17v23.4c-0.3-0.2-0.6-0.4-0.9-0.5c-2.9-2.2-6.9-2.2-9.8,0
			c-1.6,1.3-3.9,1.3-5.5,0c-1.4-1.1-3.1-1.7-4.9-1.7c-0.2,0-0.4,0-0.6,0V26.8c0-1.1-0.8-2-1.9-2H17.2c-1.1,0-1.9,0.9-1.9,2l0,0v16.1
			c-1.1,0.3-2.1,0.8-3,1.5c-0.3,0.2-0.6,0.4-0.9,0.5V21.5L32.5,4.5z"/>
		<path id="路径_61" class="st2" d="M63.1,51.6c-1.7,0-3.4,0.5-4.9,1.4c-1.7,1.1-3.9,1.1-5.5,0c-3-1.9-6.8-1.9-9.8,0
			c-1.7,1.1-3.9,1.1-5.5,0c-3-1.9-6.8-1.9-9.8,0c-1.7,1.1-3.9,1.1-5.5,0c-3-1.9-6.8-1.9-9.8,0c-1.7,1.1-3.9,1.1-5.5,0
			c-1.4-1-3.1-1.5-4.9-1.4C1,51.5,0.1,52.2,0,53.1C-0.1,54,0.6,54.9,1.5,55c0.1,0,0.3,0,0.4,0c1,0,2,0.3,2.8,0.9
			c3,1.9,6.8,1.9,9.8,0c1.7-1.1,3.9-1.1,5.5,0c3,1.9,6.8,1.9,9.8,0c1.7-1.1,3.9-1.1,5.5,0c3,1.9,6.8,1.9,9.8,0
			c1.7-1.1,3.9-1.1,5.5,0c3,1.9,6.8,1.9,9.8,0c0.8-0.6,1.8-0.9,2.8-0.9c0.9,0.1,1.8-0.6,1.9-1.5s-0.6-1.8-1.5-1.9
			C63.4,51.6,63.2,51.6,63.1,51.6z"/>
		<path id="路径_62" class="st2" d="M63.1,59.6c-1.7,0-3.4,0.5-4.9,1.4c-1.7,1.1-3.9,1.1-5.5,0c-3-1.9-6.8-1.9-9.8,0
			c-1.7,1.1-3.9,1.1-5.5,0c-3-1.9-6.8-1.9-9.8,0c-1.7,1.1-3.9,1.1-5.5,0c-3-1.9-6.8-1.9-9.8,0c-1.7,1.1-3.9,1.1-5.5,0
			c-1.4-1-3.1-1.5-4.9-1.4C1,59.5,0.1,60.1,0,61.1C-0.1,62,0.6,62.9,1.5,63c0.1,0,0.3,0,0.4,0c1,0,2,0.3,2.8,0.9
			c3,1.9,6.8,1.9,9.8,0c1.7-1.1,3.9-1.1,5.5,0c3,1.9,6.8,1.9,9.8,0c1.7-1.1,3.9-1.1,5.5,0c3,1.9,6.8,1.9,9.8,0
			c1.7-1.1,3.9-1.1,5.5,0c3,1.9,6.8,1.9,9.8,0c0.8-0.6,1.8-0.9,2.8-0.9c0.9,0.1,1.8-0.6,1.9-1.5s-0.6-1.8-1.5-1.9
			C63.3,59.5,63.2,59.5,63.1,59.6L63.1,59.6z"/>
	</g>
</g>
</svg>
