<?xml version="1.0" encoding="utf-8"?>
<!-- Generator: Adobe Illustrator 22.0.1, SVG Export Plug-In . SVG Version: 6.00 Build 0)  -->
<svg version="1.1" id="圖層_1" xmlns="http://www.w3.org/2000/svg" xmlns:xlink="http://www.w3.org/1999/xlink" x="0px" y="0px"
	 viewBox="0 0 150 150" style="enable-background:new 0 0 150 150;" xml:space="preserve">
<style type="text/css">
	.st0{fill:#0C8850;}
	.st1{fill:#FFFFFF;}
	.st2{font-family:'NotoSansCJKtc-Bold-B5pc-H';}
	.st3{font-size:22px;}
</style>
<g id="iocn-riverdepth" transform="translate(-925 -927.49)">
	<path id="路径_51" class="st0" d="M925,1002.5c0-41.4,33.6-75,75-75s75,33.6,75,75c0,41.4-33.6,75-75,75S925,1043.9,925,1002.5
		L925,1002.5z"/>
	<text transform="matrix(1 0 0 1 978 1055.259)" class="st1 st2 st3">水位</text>
	<path id="路径_461" class="st1" d="M973.7,1015.4L973.7,1015.4c3.7,3.4,9.3,3.4,13,0l0,0c2.1-1.9,5.3-1.9,7.3,0l0,0
		c3.6,3.4,9.3,3.4,12.9,0l0,0c1.9-1.7,4.7-1.9,6.8-0.5v6h4.1v-4h5.8v-4.1h-5.8v-3h5.8v-4.1h-5.8v-4.2h5.8v-4.1h-5.8v-4.2h5.8v-4.1
		h-5.8v-4.2h5.8v-4.1h-5.8v-4.2h5.8v-4.1h-5.8v-4.2h5.8v-4.1h-5.8V960h10v60.9h4.1V956h-18.2v30.1c-3.3-1.1-7-0.4-9.6,2l0,0
		c-2.1,1.9-5.3,1.9-7.3,0l0,0c-3.6-3.4-9.3-3.4-12.9,0l0,0c-2.1,1.9-5.3,1.9-7.3,0l0,0c-2.5-2.4-6.2-3.2-9.5-2.1v4.5
		c2.1-1.4,4.9-1.2,6.7,0.5l0,0c3.6,3.4,9.3,3.4,12.9,0l0,0c2.1-1.9,5.3-1.9,7.3,0l0,0c3.6,3.4,9.3,3.4,12.9,0l0,0
		c1.9-1.7,4.7-1.9,6.8-0.5v7.7c-3.3-1.1-7-0.4-9.6,2l0,0c-2.1,1.9-5.3,1.9-7.3,0l0,0c-3.6-3.4-9.3-3.4-12.9,0l0,0
		c-2.1,1.9-5.3,1.9-7.3,0l0,0c-2.6-2.4-6.2-3.2-9.5-2v4.5c2.1-1.4,4.9-1.2,6.7,0.5l0,0c3.6,3.4,9.3,3.4,12.9,0l0,0
		c2.1-1.9,5.3-1.9,7.3,0l0,0c3.6,3.4,9.3,3.4,12.9,0l0,0c1.9-1.7,4.7-1.9,6.8-0.5v7.7c-3.3-1.1-7-0.4-9.6,2l0,0
		c-2.1,1.9-5.3,1.9-7.3,0l0,0c-3.6-3.4-9.3-3.4-12.9,0l0,0c-2.1,1.9-5.3,1.9-7.3,0l0,0c-2.6-2.4-6.2-3.2-9.5-2v4.5
		C969.1,1013.5,971.9,1013.7,973.7,1015.4z"/>
</g>
</svg>
