<svg xmlns="http://www.w3.org/2000/svg" width="105.466" height="81.46" viewBox="0 0 105.466 81.46">
  <g id="组_305" data-name="组 305" transform="translate(-6.189 7.845) rotate(-8)">
    <g id="组_280" data-name="组 280" transform="translate(0 38.148)">
      <g id="组_276" data-name="组 276" transform="translate(0)">
        <g id="组_275" data-name="组 275" transform="translate(0 6.319)">
          <g id="组_274" data-name="组 274" transform="translate(3.533 2.749)">
            <rect id="矩形_127" data-name="矩形 127" width="16.752" height="1.57" fill="#ccc"/>
          </g>
          <path id="路径_359" data-name="路径 359" d="M763.312,271.725a3.534,3.534,0,1,1-3.533,3.533A3.534,3.534,0,0,1,763.312,271.725Z" transform="translate(-759.779 -271.725)" fill="#293237"/>
        </g>
        <path id="路径_360" data-name="路径 360" d="M688.575,267.368a6.787,6.787,0,0,0,6.787-6.787V254.45a6.787,6.787,0,0,0-6.787-6.787h0a6.787,6.787,0,0,0-6.787,6.787v6.131a6.787,6.787,0,0,0,6.787,6.787Z" transform="translate(-667.814 -247.663)" fill="#fff" stroke="#ccc" stroke-width="1"/>
      </g>
      <g id="组_279" data-name="组 279" transform="translate(77.961)">
        <g id="组_278" data-name="组 278" transform="translate(7.263 6.319)">
          <g id="组_277" data-name="组 277" transform="translate(0 2.749)">
            <rect id="矩形_128" data-name="矩形 128" width="16.752" height="1.57" fill="#ccc"/>
          </g>
          <path id="路径_361" data-name="路径 361" d="M388.451,271.725a3.534,3.534,0,1,0,3.533,3.533A3.534,3.534,0,0,0,388.451,271.725Z" transform="translate(-371.699 -271.725)" fill="#293237"/>
        </g>
        <path id="路径_362" data-name="路径 362" d="M444.918,267.368a6.787,6.787,0,0,1-6.787-6.787V254.45a6.787,6.787,0,0,1,6.787-6.787h0a6.787,6.787,0,0,1,6.787,6.787v6.131a6.787,6.787,0,0,1-6.787,6.787Z" transform="translate(-438.131 -247.663)" fill="#fff" stroke="#ccc" stroke-width="1"/>
      </g>
    </g>
    <g id="组_283" data-name="组 283" transform="translate(42.98)">
      <g id="组_282" data-name="组 282" transform="translate(6.319)">
        <g id="组_281" data-name="组 281" transform="translate(2.748 3.534)">
          <rect id="矩形_129" data-name="矩形 129" width="1.57" height="16.752" fill="#ccc"/>
        </g>
        <path id="路径_363" data-name="路径 363" d="M579.116,105.933a3.534,3.534,0,1,1-3.533-3.534A3.533,3.533,0,0,1,579.116,105.933Z" transform="translate(-572.049 -102.399)" fill="#293237"/>
      </g>
      <path id="路径_364" data-name="路径 364" d="M547.987,162.4a6.787,6.787,0,0,0,6.787,6.787h6.131a6.787,6.787,0,0,0,6.787-6.787h0a6.787,6.787,0,0,0-6.787-6.787h-6.131a6.787,6.787,0,0,0-6.787,6.787Z" transform="translate(-547.987 -141.642)" fill="#fff" stroke="#ccc" stroke-width="1"/>
    </g>
    <g id="组_286" data-name="组 286" transform="translate(18.685 18.132)">
      <path id="路径_365" data-name="路径 365" d="M459.975,222.537a34.148,34.148,0,1,1,59.282,0Z" transform="translate(-455.467 -171.443)" fill="#95d8e9"/>
      <g id="组_285" data-name="组 285" transform="translate(21.503 11.962)">
        <g id="组_284" data-name="组 284">
          <path id="路径_366" data-name="路径 366" d="M550,216.992a12.645,12.645,0,1,1-12.646,12.645A12.646,12.646,0,0,1,550,216.992Zm0,21.411a8.766,8.766,0,1,0-8.766-8.766A8.765,8.765,0,0,0,550,238.4Z" transform="translate(-537.352 -216.992)" fill="#0d73ad"/>
          <path id="路径_367" data-name="路径 367" d="M560.892,231.763a8.766,8.766,0,1,1-8.766,8.766A8.765,8.765,0,0,1,560.892,231.763Z" transform="translate(-548.246 -227.884)" fill="#fff"/>
        </g>
        <path id="路径_368" data-name="路径 368" d="M575.8,257.988a2.548,2.548,0,1,0,2.548-2.548A2.548,2.548,0,0,0,575.8,257.988Z" transform="translate(-565.706 -245.343)" fill="#2b2a28"/>
      </g>
      <path id="路径_388" data-name="路径 388" d="M0,0H21.411L21.29,10.977-.4,7.928Z" transform="translate(23.443 51.094)" fill="#293237"/>
      <path id="路径_369" data-name="路径 369" d="M574.391,322.325s-9.572,6.177-18.475-3.172" transform="translate(-532.473 -280.363)" fill="none" stroke="#fff" stroke-miterlimit="10" stroke-width="1"/>
      <path id="路径_370" data-name="路径 370" d="M624.987,315.317a5.641,5.641,0,0,1-2.4,1.527" transform="translate(-600.577 -277.534)" fill="none" stroke="#fff" stroke-miterlimit="10" stroke-width="1"/>
    </g>
  </g>
</svg>
